<?xml version="1.0" encoding="UTF-8"?>
<svg xmlns="http://www.w3.org/2000/svg"><metadata/><defs><font id="musicalsymbolstextgridregular" horiz-adv-x="0"><font-face units-per-em="2048" ascent="1638" descent="-410"/><missing-glyph horiz-adv-x="500"/><glyph unicode="&#xD;" horiz-adv-x="682"/><glyph unicode=" " horiz-adv-x="1327"/><glyph unicode=" " horiz-adv-x="2654"/><glyph unicode=" " horiz-adv-x="1327"/><glyph unicode=" " horiz-adv-x="2654"/><glyph unicode=" " horiz-adv-x="884"/><glyph unicode=" " horiz-adv-x="663"/><glyph unicode=" " horiz-adv-x="442"/><glyph unicode=" " horiz-adv-x="442"/><glyph unicode=" " horiz-adv-x="331"/><glyph unicode=" " horiz-adv-x="530"/><glyph unicode=" " horiz-adv-x="147"/><glyph unicode=" " horiz-adv-x="530"/><glyph unicode=" " horiz-adv-x="663"/><glyph unicode="♭" horiz-adv-x="780" d="M200 -40v1033h70v-629q37 28 55.5 40t50.5 21.5t74 9.5q66 0 98 -46t32 -113q0 -73 -80.5 -150t-229.5 -166h-70zM270 289v-256q42 30 70.5 55t55.5 57t40.5 67.5t13.5 74.5q0 68 -50 68q-26 0 -43 -6t-36 -21t-51 -39z"/><glyph unicode="♮" horiz-adv-x="780" d="M200 -40v855h70v-372l310 41v-855h-70v372zM270 302v-187l240 27v187z"/><glyph unicode="♯" horiz-adv-x="780" d="M340 -22v-358h-70v349l-70 -9v140l70 9v194l-70 -9v140l70 9v319h70v-310l100 14v358h70v-349l70 9v-140l-70 -9v-194l70 9v-140l-70 -9v-319h-70v310zM340 118l100 14v194l-100 -14v-194z"/><glyph unicode="" horiz-adv-x="500" d="M0 0v0v0v0v0z"/><glyph unicode="" horiz-adv-x="2787" d="M2443 549q-29 30 -29 71t29 70.5t70.5 29.5t71 -29.5t29.5 -70.5t-29.5 -70.5t-71 -29.5t-70.5 29zM2624 1238l-626 -838h-244l624 838h246zM2160 1238l-625 -838h-245l625 838h245zM1524 1238l-626 -838h-244l624 838h246zM229 947q-29 30 -29 71t29.5 70.5t70.5 29.5 t70.5 -29.5t29.5 -70.5t-29.5 -70.5t-70.5 -29.5t-71 29zM1060 1238l-625 -838h-245l625 838h245z"/><glyph unicode="" horiz-adv-x="378" d="M169 244q-40 -19 -64.5 -49.5t-24.5 -63.5q0 -57 30 -83t79 -26t79 26t30 83q0 61 -129 113zM205 287q42 17 60 37.5t18 57.5q0 40 -27.5 63t-66.5 23t-66.5 -23t-27.5 -63q0 -22 8.5 -38t26.5 -26.5t33 -16.5t42 -14zM245 272q46 -23 75.5 -62t29.5 -79 q0 -136 -161 -136t-161 136q0 37 29 72t74 56q-41 18 -62 45t-21 78q0 49 43 81t98 32t98 -32t43 -81q0 -45 -22.5 -70t-62.5 -40z"/><glyph unicode="" horiz-adv-x="1212" d="M401 915q0 -30 1.5 -85.5t1.5 -79.5t-1.5 -79.5t-1.5 -85.5q0 -105 6 -180t25.5 -154.5t61.5 -121.5t108 -42t108 42t61.5 121.5t25.5 154.5t6 180v165v165q0 105 -6 180t-25.5 154.5t-61.5 121.5t-108 42t-108 -42t-61.5 -121.5t-25.5 -154.5t-6 -180zM203 1275 q150 225 399 225t400.5 -223.5t151.5 -526.5t-151.5 -526.5t-400.5 -223.5t-399 223.5t-150 526.5t150 525zM404 424l340 896l32 -84l-352 -944z"/><glyph unicode="" horiz-adv-x="1004" d="M543 1461q36 0 84 21t54 21q15 0 25.5 -15t10.5 -36v-1101q0 -114 61.5 -198t89.5 -84q36 0 36 -33q0 -36 -36 -36q2 0 -128.5 19.5t-196.5 19.5t-196.5 -19.5t-146.5 -19.5q-36 0 -36 36q0 33 36 33q46 0 107.5 84t61.5 198l14 740q0 24 -16.5 40.5t-34.5 16.5 q-21 0 -30 -21l-130 -251q-9 -27 -36 -27q-18 0 -33 12t-15 30q0 9 6 21l299 579q3 9 15 9t52.5 -19.5t82.5 -19.5z"/><glyph unicode="" horiz-adv-x="1204" d="M687 0q-93 0 -159 31.5t-96 67.5t-76.5 67.5t-100.5 31.5q-69 0 -124.5 -45t-61.5 -120q0 -33 -33 -33q-36 0 -36 33q0 111 52.5 204t130.5 156t169.5 135t169.5 139.5t152 170.5t74 226q0 153 -72.5 260t-180.5 107q-63 0 -108 -30t-45 -81q0 -42 52.5 -102t52.5 -102 q0 -87 -60 -147t-144 -60q-87 0 -147 61.5t-60 145.5q0 168 135 276t324 108q225 0 393 -121.5t168 -313.5q0 -129 -48 -225t-135 -154.5t-174 -99t-204 -88.5t-186 -93q36 9 78 9q138 0 285 -88.5t228 -88.5q48 0 78 18t42.5 59.5t24.5 59.5t27 18q36 0 36 -36 q-7 -116 -121 -236t-300 -120z"/><glyph unicode="" horiz-adv-x="1008" d="M789 795q0 -33 33 -60t72 -49.5t72 -91.5t33 -174q0 -201 -151.5 -310.5t-385.5 -109.5q-186 0 -324 93t-138 246q0 84 57 141t141 57q81 0 138 -57t57 -141q0 -39 -60 -81t-60 -78q0 -57 55.5 -84t133.5 -27q102 0 184 98t82 245v48q0 99 -44.5 152.5t-79 95.5 t-103.5 42l-133 -2q-42 0 -42 45q0 42 42 42l133 2q42 0 72 16.5t45 39t65 82.5t51.5 94.5t1.5 97.5v24q-85 240 -286 240q-177 0 -177 -99q0 -33 54 -70.5t54 -70.5q0 -72 -51 -123t-123 -51t-121.5 51t-49.5 123q0 138 123 223.5t291 85.5q222 0 364.5 -85.5t142.5 -256.5 q0 -123 -25.5 -190.5t-58.5 -82.5t-58.5 -34.5t-25.5 -55.5z"/><glyph unicode="" horiz-adv-x="1204" d="M681 1461q69 0 147 21l81 21q24 0 36 -18t0 -33l-852 -990h501l-2 272l353 438v-710h166q45 0 45 -42q0 -45 -45 -45h-166v-24q0 -114 60 -198t111 -84q36 0 36 -33q0 -36 -36 -36q-21 0 -151.5 19.5t-196.5 19.5t-196.5 -19.5t-143.5 -15.5q-36 0 -36 36q0 33 36 33 q43 -4 104.5 80t61.5 198v24h-501q-48 0 -70.5 22.5t-22.5 46.5q0 9 66 94.5t144 204t144 313.5t66 396q0 48 39 48l78 -18q78 -21 144 -21z"/><glyph unicode="" horiz-adv-x="1104" d="M132 1500l60 -9q57 -9 157.5 -19.5t199.5 -10.5q102 0 204 10.5t162 19.5l60 9q27 0 52 -22t-7 -82q-285 -223 -795 -223q-21 0 -36 -15t-15 -36v-288q135 129 315 129q558 0 558 -483q0 -204 -166.5 -342t-391.5 -138q-198 0 -343.5 91.5t-145.5 247.5q0 84 57 141 t141 57q81 0 138 -57t57 -141q0 -39 -60 -81t-60 -78q0 -111 216 -111q307 79 319 411q-20 312 -319 396q-96 0 -166.5 -24t-99 -52.5l-52.5 -52.5t-39 -24q-18 0 -31.5 13.5t-13.5 31.5v684q0 21 13.5 34.5t31.5 13.5z"/><glyph unicode="" horiz-adv-x="1004" d="M493 768q-54 0 -88.5 -21t-49.5 -69t-18 -91.5t-3 -124.5v-42v-45q0 -81 3 -124.5t18 -91.5t49.5 -69t88.5 -21q63 0 100.5 24t55.5 79.5t22.5 108t4.5 139.5t-4.5 139.5t-22.5 106.5t-55.5 78t-100.5 24zM334 798q111 39 159 39q234 0 372 -106.5t138 -310.5 q0 -207 -138 -313.5t-372 -106.5q-240 0 -375 222t-106 528q-29 303 130 526.5t411 223.5q168 0 291 -85.5t123 -223.5q0 -84 -57 -141t-138 -57q-84 0 -141 57t-57 141q0 33 58.5 72t58.5 75q0 42 -42 67.5t-96 25.5q-135 0 -180 -109.5t-45 -307.5q0 -72 6 -216z"/><glyph unicode="" horiz-adv-x="1104" d="M201 1230q-48 0 -81 -51t-33 -91l1 -72q0 -45 -42 -45q-45 0 -45 45v468q0 45 45 45q42 0 42 -45l-1 -71q0 -18 19.5 -36t25.5 -9q87 132 234 132q114 0 214.5 -84t166.5 -84q72 0 135 42t76.5 59t25.5 17q18 0 33 -12t15 -30q0 -12 -51 -101t-142.5 -237.5t-166.5 -372 t-75 -427.5q0 -60 7.5 -123t12 -91.5t-1.5 -46.5t-33 -18l-84 24q-87 24 -147 24q-63 0 -144 -24t-90 -24q-21 0 -33 16.5t-3 34.5q108 258 262.5 502.5t385.5 562.5q-96 -48 -177 -48q-93 0 -190.5 85.5t-160.5 85.5z"/><glyph unicode="" horiz-adv-x="1224" d="M1220 542q1 -124 -56.5 -224t-146.5 -172t-199.5 -109t-213.5 -37q-97 0 -202.5 22.5t-193.5 73t-144.5 129.5t-56.5 193q-2 77 23 141t60.5 112.5t78.5 81t76 45.5q-124 68 -165.5 169.5t-43.5 202.5q1 117 48 198t126 134t180.5 77.5t213.5 24.5q162 0 268.5 -32.5 t170 -87.5t89.5 -127.5t29 -153.5q3 -92 -39 -173t-116 -142q86 -45 150.5 -130.5t63.5 -215.5zM956 1167q-6 61 -24.5 119.5t-65 102.5t-109 71t-172.5 27q-59 0 -119 -16t-103.5 -45t-68.5 -71.5t-14 -94.5q9 -52 83.5 -103.5t170.5 -98t180.5 -82.5t131 -21.5t82 81 t28.5 131.5zM929 385q-1 98 -67.5 164.5t-157.5 108.5t-183.5 64.5t-157.5 3t-110 -72.5t-42 -158q0 -81 21 -148.5t67 -118t120 -78t188 -27.5q36 0 91 19.5t104.5 54t87.5 83t39 105.5z"/><glyph unicode="" horiz-adv-x="1000" d="M509 732q54 0 88.5 21t49.5 69t18 91.5t3 124.5v42v45q0 81 -3 124.5t-18 91.5t-49.5 69t-88.5 21q-63 0 -100.5 -24t-55.5 -79.5t-22.5 -108t-4.5 -139.5t4.5 -139.5t22.5 -106.5t55.5 -78t100.5 -24zM668 702q-111 -39 -159 -39q-234 0 -372 106.5t-138 310.5 q0 207 138 313.5t372 106.5q240 0 375 -222t106 -528q29 -303 -130 -526.5t-411 -223.5q-168 0 -291 85.5t-123 223.5q0 84 57 141t138 57q84 0 141 -57t57 -141q0 -33 -58.5 -72t-58.5 -75q0 -42 42 -67.5t96 -25.5q135 0 180 109.5t45 307.5q0 72 -6 216z"/><glyph unicode="" horiz-adv-x="932" d="M859 1049q-7 0 -14 31.5t-18 42.5q-70 70 -208 70q-73 0 -135.5 -34t-104.5 -89t-72 -124.5t-43.5 -138.5t-13.5 -134q0 -75 28 -151.5t85 -133t129 -56.5q65 0 118 21t78 45.5t43 45.5t22 21q7 0 18.5 -9t11.5 -15q0 -12 -22 -39.5t-59.5 -59.5t-100 -56t-131.5 -24 q-114 0 -200.5 62.5t-128 156.5t-41.5 200q0 60 21 134.5t66.5 153.5t107.5 144.5t153 107.5t194 42q42 0 123 -30q11 -5 18.5 -7t13 -2.5t23.5 -0.5q22 0 39.5 10t28.5 20t16 10q14 0 5 -46l-28 -137q-6 -31 -22 -31z"/><glyph unicode="" horiz-adv-x="1157" d="M364 405q-3 -15 -3.5 -23.5t3 -16t10.5 -11t24 -6t37.5 -3t55.5 -0.5q80 0 147.5 32.5t112.5 84.5t76.5 118.5t45.5 134t14 132.5q0 163 -70 248t-198 85q-64 0 -83 -12t-27 -50zM297 1250h327q48 0 93 -6.5t96.5 -23t93 -48.5t76.5 -78t54.5 -118t19.5 -163 q0 -152 -79 -276.5t-209.5 -193t-282.5 -68.5h-352q-14 0 -21 0.5t-17.5 3t-15.5 8t-5 15.5t5 18t15.5 12t18.5 6.5t21.5 4.5t16.5 3q32 6 43.5 13.5t15.5 27.5l149 739q9 47 -39 58q-7 1 -25.5 4t-28 5t-18.5 8.5t-9 16.5q0 13 18.5 22.5t38.5 9.5z"/><glyph unicode="" horiz-adv-x="853" d="M404 747q-62 47 -92.5 73t-57.5 61.5t-35.5 72.5t-8.5 92q0 68 47 119.5t107.5 74.5t116.5 23q38 0 67.5 -5t45 -11.5t34.5 -13.5q11 -5 18.5 -7t13 -2.5t23.5 -0.5q22 0 39.5 10t28.5 20t16 10q14 0 5 -46l-28 -137q-6 -31 -22 -31q-7 0 -14 31.5t-18 42.5 q-70 70 -208 70q-61 0 -91.5 -37.5t-30.5 -91.5q0 -57 36.5 -109.5t117.5 -108.5q58 -40 88.5 -65t63 -62t46 -80.5t13.5 -100.5q0 -125 -76.5 -200.5t-214.5 -75.5q-134 0 -215 30q-11 5 -18.5 7t-13 2.5t-23.5 0.5q-22 0 -39.5 -10t-28.5 -20t-16 -10q-15 0 -5 46l37 174 q2 10 3.5 15t6.5 10.5t12 5.5q10 0 11.5 -19t6.5 -47.5t21 -44.5q37 -37 85.5 -53.5t151.5 -16.5q64 0 114.5 50t50.5 117q0 68 -19.5 109t-57.5 69t-94 70z"/><glyph unicode="" horiz-adv-x="354" d="M115 296q-25 26 -25 62t25.5 62t61.5 26t61.5 -26t25.5 -62t-25.5 -62t-61.5 -26t-62 26z"/><glyph unicode="" horiz-adv-x="846" d="M452 840q-47 0 -85.5 -27.5t-61 -68.5t-38 -92t-21 -93t-5.5 -77q0 -158 62 -158q19 0 34.5 3.5t22 7t21 13.5t20.5 13q1 11 3 21l84 418q5 24 -2 32t-34 8zM418 294q-21 -10 -34.5 -17.5t-39 -12.5t-63.5 -5t-67.5 8.5t-59.5 31t-46.5 71t-16.5 120.5q0 89 53 185.5 t142 163t181 66.5q72 0 125 -38.5t40 -101.5l-74 -363q-7 -37 14 -37q21 1 60.5 60.5t77.5 170.5l56 -24q-27 -68 -53.5 -124.5t-53 -97t-69.5 -63t-103 -22.5q-46 0 -69 29z"/><glyph unicode="" horiz-adv-x="742" d="M144 1222q0 8 15.5 15t46.5 17t45 16q19 7 67.5 32.5t63.5 25.5t25 -8t8 -20l-89 -445q29 19 45 27.5t45.5 15.5t70.5 7q84 0 124 -55.5t40 -151.5q0 -46 -10 -99t-34.5 -113.5t-60.5 -108.5t-94 -80t-128 -32q-112 0 -169.5 47.5t-63.5 125.5l143 723q3 13 3 19 q0 30 -22 30q-11 0 -29 -2t-30 -2t-12 16zM301 730l-50 -250q-8 -40 -8 -68v-14v-13q0 -26 7 -39t29 -13q47 0 106.5 62.5t84.5 189.5q20 107 20 162q0 50 -17 71.5t-57 21.5q-93 0 -115 -110z"/><glyph unicode="" horiz-adv-x="684" d="M583 1240q-33 0 -59 -26t-45.5 -76.5t-32.5 -106t-27 -135.5h149v-63h-159q-28 -177 -29 -186q-53 -314 -159.5 -488t-223.5 -174q-85 0 -118.5 25.5t-33.5 87.5q0 59 30 97.5t69 38.5q34 0 59 -17.5t25 -48.5q0 -29 -12.5 -47.5t-31.5 -18.5q-21 0 -29.5 -8t-8.5 -23 q0 -16 51 -16q46 0 79.5 53t52.5 138.5t37 194t32 218.5q12 87 36 174h-134v63h152q37 117 86.5 208t114 148.5t130.5 57.5q63 0 107.5 -28.5t44.5 -85.5q0 -58 -30 -96.5t-69 -38.5q-34 0 -59 17.5t-25 48.5q0 28 12.5 47t31.5 19q38 0 38 31q0 7 -16.5 11.5t-34.5 4.5z "/><glyph unicode="" horiz-adv-x="1257" d="M898 265q-54 0 -73 35t-10 82l84 418q4 23 -4 31.5t-35 8.5q-16 0 -32.5 -4t-35.5 -14.5t-34 -34t-22 -57.5l-92 -455h-151l106 525q4 23 -4 31.5t-35 8.5q-16 0 -32.5 -4t-35.5 -14.5t-34 -34t-22 -57.5l-92 -455h-151l99 493q7 37 -14 37q-19 0 -59 -59.5t-79 -171.5 l-56 24q27 68 53.5 124.5t53 97t69.5 63t103 22.5q70 0 77 -65q86 65 216 65q65 0 84 -65q24 18 40 30.5t36 20t52 11t88 3.5q43 0 71.5 -38.5t15.5 -101.5l-74 -363q-7 -37 14 -37q21 1 60.5 60.5t77.5 170.5l56 -24q-27 -68 -53.5 -124.5t-53 -97t-69.5 -63t-103 -22.5z "/><glyph unicode="" horiz-adv-x="1008" d="M653 905q49 0 101 -40t40 -100l-74 -363q-7 -37 14 -37q21 1 60.5 60.5t77.5 170.5l56 -24q-27 -68 -53.5 -124.5t-53 -97t-69.5 -63t-103 -22.5q-54 0 -73 35t-10 82l84 418q5 23 -6.5 31.5t-46.5 8.5q-69 0 -108.5 -22t-52.5 -88l-92 -455h-151l99 493q7 37 -14 37 q-19 0 -59 -59.5t-79 -171.5l-56 24q27 68 53.5 124.5t53 97t69.5 63t103 22.5q70 0 77 -65q48 36 97 50.5t116 14.5z"/><glyph unicode="" horiz-adv-x="877" d="M786 681q0 -38 -6 -79.5t-19 -90t-37 -91t-56.5 -78t-81.5 -56.5t-108 -21q-74 0 -124 54l-52 -256h125v-63h-406v63h130l141 705q7 37 -14 37q-19 0 -59 -59.5t-79 -171.5l-56 24q28 68 54 124.5t53 97t69.5 63t103.5 22.5q70 0 76 -65q51 38 87.5 51.5t98.5 13.5 q42 0 74 -18t50.5 -49.5t27 -70.5t8.5 -86zM436 730l-50 -250q-7 -38 -7 -68q0 -79 53 -79q20 0 42 10.5t47.5 34t48 73t36.5 117.5q20 105 20 162q0 110 -72 110q-16 0 -31 -4t-33 -14.5t-32.5 -34t-21.5 -57.5z"/><glyph unicode="" horiz-adv-x="666" d="M277 905q43 0 61 -54q23 22 32 29t32.5 16t54.5 9q50 0 89.5 -36.5t39.5 -89.5q0 -60 -23 -100t-72 -40q-47 0 -67 18.5t-20 55.5q0 31 22 51.5t58 20.5q35 0 35 17q0 12 -21 25.5t-46 13.5q-80 0 -95 -76l-99 -490h-151l101 500q2 11 -3.5 20.5t-12.5 9.5q-23 0 -60 -61 l-48 35q81 126 193 126z"/><glyph unicode="" horiz-adv-x="688" d="M476 788q0 17 -17.5 35t-48.5 18q-56 0 -78 -17.5t-22 -66.5q0 -27 19 -51t48 -40.5t62.5 -40t62.5 -47.5t48 -64.5t19 -90.5q0 -83 -79 -123.5t-195 -40.5q-90 0 -147 36t-57 103q0 49 24 74t57 25q26 0 44.5 -17.5t18.5 -39.5q0 -16 -9 -28t-9 -23q0 -31 29 -48.5 t70 -17.5q44 0 73 25.5t29 64.5q0 43 -26 73.5t-62.5 50t-73 41.5t-62.5 61.5t-26 96.5q0 80 65.5 124.5t178.5 44.5q85 0 136 -42.5t51 -102.5q0 -24 -20 -40t-46 -16q-32 0 -48 15.5t-16 36.5q0 7 3.5 16.5t3.5 15.5z"/><glyph unicode="" horiz-adv-x="781" d="M593 905q37 0 59 -28t30 -71.5t8 -107.5q0 -46 -10 -99t-34.5 -113.5t-60.5 -108.5t-94 -80t-128 -32q-110 0 -168 47t-58 113q0 45 4 65l58 285q2 11 -3.5 20.5t-12.5 9.5q-23 0 -60 -61l-48 35q81 126 193 126q47 0 69 -42t11 -98l-58 -285q-8 -39 -8 -68v-14v-13 q0 -22 20.5 -37t45.5 -15q86 0 143.5 46.5t97.5 164.5q26 76 26 151q0 30 -15 53.5t-30 23.5q-18 0 -33.5 19t-15.5 49q0 31 19.5 48t52.5 17z"/><glyph unicode="" horiz-adv-x="804" d="M535 338q25 0 46 13.5t21 25.5q0 17 -35 17q-36 0 -58 20.5t-22 51.5q0 37 20 55.5t67 18.5q48 0 71.5 -40t23.5 -100q0 -164 -185 -164q-27 0 -57.5 20t-63.5 40.5t-67 20.5q-45 0 -74 -8.5t-60 -33.5h-78v29l426 455h-128q-47 0 -83 -21q-16 -8 -28 -42h-49l40 200h462 v-91l-405 -382q23 3 48 3q31 0 54.5 -14t36 -30t33 -30t44.5 -14z"/><glyph unicode="" horiz-adv-x="1819" d="M592 295q0 -125 -109.5 -210t-249.5 -85q-225 0 -225 149q0 125 109 210t250 85q99 0 155 -30v1224h70h1181v-1343q0 -125 -109.5 -210t-249.5 -85q-225 0 -225 149q0 125 109 210t250 85q99 0 155 -30v1043h-1111v-1162z"/><glyph unicode="" horiz-adv-x="1822" d="M592 295q0 -125 -109.5 -210t-249.5 -85q-225 0 -225 149q0 125 109 210t250 85q99 0 155 -30v1224h1181h70v-1343q0 -125 -109.5 -210t-249.5 -85q-225 0 -225 149q0 125 109 210t250 85q99 0 155 -30v771l-1111 -2v-888zM592 1364h1111v95l-1111 -2v-93z"/><glyph unicode="" horiz-adv-x="1822" d="M592 916v-621q0 -125 -109.5 -210t-249.5 -85q-225 0 -225 149q0 125 109 210t250 85q99 0 155 -30v1224h1251v-1343q0 -125 -109.5 -210t-249.5 -85q-225 0 -225 149q0 125 109 210t250 85q99 0 155 -30v504zM592 1364h1111v95l-1111 -2v-93zM592 1097h1111v88l-1111 -2 v-86z"/><glyph unicode="" horiz-adv-x="1825" d="M592 295q0 -125 -109.5 -210t-249.5 -85q-225 0 -225 149q0 125 109 210t250 85q99 0 155 -30v1224h70h1181v-1343q0 -125 -109.5 -210t-249.5 -85q-225 0 -225 149q0 125 109 210t250 85q99 0 155 -30v775l-297 1v181l297 -3v91l-1111 -2v-1162z"/><glyph unicode="" horiz-adv-x="1825" d="M592 295q0 -125 -109.5 -210t-249.5 -85q-225 0 -225 149q0 125 109 210t250 85q99 0 155 -30v1224h1181h70v-1343q0 -125 -109.5 -210t-249.5 -85q-225 0 -225 149q0 125 109 210t250 85q99 0 155 -30v1045l-1111 -2v-89h292v-179l-292 -2v-892z"/><glyph unicode="" horiz-adv-x="1819" d="M592 295q0 -125 -109.5 -210t-249.5 -85q-225 0 -225 149q0 125 109 210t250 85q99 0 155 -30v1224h70h1181v-1343q0 -125 -109.5 -210t-249.5 -85q-225 0 -225 149q0 125 109 210t250 85q99 0 155 -30v775l-297 1v181l297 -3v91l-1111 -2v-1162zM650 173q0 24 9.5 45 t26 37t39 25t48.5 9t48.5 -9t39 -25t26 -37t9.5 -45t-9.5 -45t-26 -36.5t-39 -24.5t-48.5 -9t-48.5 9t-39 24.5t-26 36.5t-9.5 45z"/><glyph unicode="" horiz-adv-x="2102" d="M592 295q0 -125 -109.5 -210t-249.5 -85q-225 0 -225 149q0 125 109 210t250 85q99 0 155 -30v1224h1181h70v-1343q0 -125 -109.5 -210t-249.5 -85q-225 0 -225 149q0 125 109 210t250 85q99 0 155 -30v1045l-1111 -2v-89h293v-179l-293 -2v-892zM1839 174q0 24 9 45 t25 37t38 25t48 9t48.5 -9t39 -25t26 -37t9.5 -45t-9.5 -45t-26 -36.5t-39 -24.5t-48.5 -9t-48 9t-38 24.5t-25 36.5t-9 45z"/><glyph unicode="" horiz-adv-x="1819" d="M592 295q0 -125 -109.5 -210t-249.5 -85q-225 0 -225 149q0 125 109 210t250 85q99 0 155 -30v1224h1181h70v-1343q0 -125 -109.5 -210t-249.5 -85q-225 0 -225 149q0 125 109 210t250 85q99 0 155 -30v500l-297 1v181l297 -3v96l-297 1v181l297 -3v91l-1111 -2v-1162z M896 173q0 24 9 45t25 37t38 25t48 9t47.5 -9t36.5 -25t23 -37t8 -45q0 -48 -31 -81.5t-84 -33.5q-26 0 -48 9t-38 24.5t-25 36.5t-9 45zM608 173q0 24 8.5 45t23.5 37t36.5 25t47.5 9t48 -9t37.5 -25t24.5 -37t9 -45t-9 -45t-24.5 -36.5t-37.5 -24.5t-48 -9t-47.5 9 t-36.5 24.5t-23.5 36.5t-8.5 45z"/><glyph unicode="" horiz-adv-x="2389" d="M592 295q0 -125 -109.5 -210t-249.5 -85q-225 0 -225 149q0 125 109 210t250 85q99 0 155 -30v1224h1251v-1343q0 -125 -109.5 -210t-249.5 -85q-225 0 -225 149q0 125 109 210t250 85q99 0 155 -30v1045l-1111 -2v-89h293v-179l-293 -2v-90h294v-179l-294 -2v-621z M1816 170q0 24 9 45t25 37t38 25t48 9t48.5 -9t39 -25t26 -37t9.5 -45t-9.5 -45t-26 -36.5t-39 -24.5t-48.5 -9t-48 9t-38 24.5t-25 36.5t-9 45zM2129 173q0 24 9 45t25 37t38 25t48 9t48.5 -9t39 -25t26 -37t9.5 -45t-9.5 -45t-26 -36.5t-39 -24.5t-48.5 -9t-48 9t-38 24.5 t-25 36.5t-9 45z"/><glyph unicode="" horiz-adv-x="1822" d="M1704 1601l-1111 -144v-1162q0 -125 -109.5 -210t-249.5 -85q-225 0 -225 149q0 125 109 210t250 85q99 0 155 -30l-1 1224h70l1112 142h70v-1343q0 -125 -109.5 -210t-249.5 -85q-225 0 -225 149q0 125 109 210t250 85q99 0 155 -30v1045zM154 67q61 0 129 33.5 t116.5 78.5t81 88.5t32.5 64.5t-20.5 33t-44.5 12q-61 0 -129 -33.5t-116.5 -78.5t-81 -88.5t-32.5 -64.5t20.5 -33t44.5 -12zM1335 209q61 0 129 33.5t116.5 78.5t81 88.5t32.5 64.5t-20.5 33t-44.5 12q-61 0 -129 -33.5t-116.5 -78.5t-81 -88.5t-32.5 -64.5t20.5 -33 t44.5 -12z"/><glyph unicode="" horiz-adv-x="2128" d="M523 1638h1l1180 142h70v-1343q0 -125 -109.5 -210t-249.5 -85q-225 0 -225 149q0 125 109 210t250 85q99 0 155 -30v1045l-1109 -144l-1 5l-1 -1167q0 -125 -109.5 -210t-249.5 -85q-225 0 -225 149q0 125 109 210t250 85q99 0 155 -30v1224zM1335 209q61 0 129 33.5 t116.5 78.5t81 88.5t32.5 64.5t-20.5 33t-44.5 12q-61 0 -129 -33.5t-116.5 -78.5t-81 -88.5t-32.5 -64.5t20.5 -33t44.5 -12zM154 67q61 0 129 33.5t116.5 78.5t81 88.5t32.5 64.5t-20.5 33t-44.5 12q-61 0 -129 -33.5t-116.5 -78.5t-81 -88.5t-32.5 -64.5t20.5 -33 t44.5 -12zM655 172q0 24 9 45t25 37t38 25t48 9t47.5 -9t36.5 -25t23 -37t8 -45q0 -48 -31 -81.5t-84 -33.5q-26 0 -48 9t-38 24.5t-25 36.5t-9 45zM1848 315q0 24 9 45t25 37t38 25t48 9t47.5 -9t36.5 -25t23 -37t8 -45q0 -48 -31 -81.5t-84 -33.5q-26 0 -48 9t-38 24.5 t-25 36.5t-9 45z"/><glyph unicode="" horiz-adv-x="1822" d="M522 1638h70l1112 142h70v-1343q0 -125 -109.5 -210t-249.5 -85q-225 0 -225 149q0 125 109 210t250 85q99 0 155 -30v772l-1111 -144v-889q0 -125 -109.5 -210t-249.5 -85q-225 0 -225 149q0 125 109 210t250 85q99 0 155 -30zM1704 1507v94l-1111 -144v-92zM1335 209 q61 0 129 33.5t116.5 78.5t81 88.5t32.5 64.5t-20.5 33t-44.5 12q-61 0 -129 -33.5t-116.5 -78.5t-81 -88.5t-32.5 -64.5t20.5 -33t44.5 -12zM154 67q61 0 129 33.5t116.5 78.5t81 88.5t32.5 64.5t-20.5 33t-44.5 12q-61 0 -129 -33.5t-116.5 -78.5t-81 -88.5t-32.5 -64.5 t20.5 -33t44.5 -12z"/><glyph unicode="" horiz-adv-x="2098" d="M523 1638h71l1110 142h70v-1343q0 -125 -109.5 -210t-249.5 -85q-225 0 -225 149q0 125 109 210t250 85q99 0 155 -30v772l-1110 -144l-1 -889q0 -125 -109.5 -210t-249.5 -85q-225 0 -225 149q0 125 109 210t250 85q99 0 155 -30v1224zM1704 1507v94l-1110 -144v-92z M1335 209q61 0 129 33.5t116.5 78.5t81 88.5t32.5 64.5t-20.5 33t-44.5 12q-61 0 -129 -33.5t-116.5 -78.5t-81 -88.5t-32.5 -64.5t20.5 -33t44.5 -12zM154 67q61 0 129 33.5t116.5 78.5t81 88.5t32.5 64.5t-20.5 33t-44.5 12q-61 0 -129 -33.5t-116.5 -78.5t-81 -88.5 t-32.5 -64.5t20.5 -33t44.5 -12zM655 172q0 24 9 45t25 37t38 25t48 9t47.5 -9t36.5 -25t23 -37t8 -45q0 -48 -31 -81.5t-84 -33.5q-26 0 -48 9t-38 24.5t-25 36.5t-9 45zM1848 315q0 24 9 45t25 37t38 25t48 9t47.5 -9t36.5 -25t23 -37t8 -45q0 -48 -31 -81.5t-84 -33.5 q-26 0 -48 9t-38 24.5t-25 36.5t-9 45z"/><glyph unicode="" horiz-adv-x="1822" d="M523 1638h69l1112 142h70v-1343q0 -125 -109.5 -210t-249.5 -85q-225 0 -225 149q0 125 109 210t250 85q99 0 155 -30v501l-1111 -144v-618q0 -125 -109.5 -210t-249.5 -85q-225 0 -225 149q0 125 109 210t250 85q99 0 155 -30v1224zM1704 1507v94l-1111 -144v-92z M593 1094l1111 142v92l-1111 -144v-90zM154 67q61 0 129 33.5t116.5 78.5t81 88.5t32.5 64.5t-20.5 33t-44.5 12q-61 0 -129 -33.5t-116.5 -78.5t-81 -88.5t-32.5 -64.5t20.5 -33t44.5 -12zM1335 209q61 0 129 33.5t116.5 78.5t81 88.5t32.5 64.5t-20.5 33t-44.5 12 q-61 0 -129 -33.5t-116.5 -78.5t-81 -88.5t-32.5 -64.5t20.5 -33t44.5 -12z"/><glyph unicode="" horiz-adv-x="2102" d="M522 1638h70l1112 142h70v-1343q0 -125 -109.5 -210t-249.5 -85q-225 0 -225 149q0 125 109 210t250 85q99 0 155 -30v501l-1111 -144v-618q0 -125 -109.5 -210t-249.5 -85q-225 0 -225 149q0 125 109 210t250 85q99 0 155 -30zM1704 1507v94l-1111 -144v-92zM593 1094 l1111 142v92l-1111 -144v-90zM1335 209q61 0 129 33.5t116.5 78.5t81 88.5t32.5 64.5t-20.5 33t-44.5 12q-61 0 -129 -33.5t-116.5 -78.5t-81 -88.5t-32.5 -64.5t20.5 -33t44.5 -12zM154 67q61 0 129 33.5t116.5 78.5t81 88.5t32.5 64.5t-20.5 33t-44.5 12q-61 0 -129 -33.5 t-116.5 -78.5t-81 -88.5t-32.5 -64.5t20.5 -33t44.5 -12zM655 172q0 24 9 45t25 37t38 25t48 9t47.5 -9t36.5 -25t23 -37t8 -45q0 -48 -31 -81.5t-84 -33.5q-26 0 -48 9t-38 24.5t-25 36.5t-9 45zM1847 316q0 24 9 45t25 37t38 25t48 9t47.5 -9t36.5 -25t23 -37t8 -45 q0 -48 -31 -81.5t-84 -33.5q-26 0 -48 9t-38 24.5t-25 36.5t-9 45z"/><glyph unicode="" horiz-adv-x="2350" d="M592 295q0 -125 -109.5 -210t-249.5 -85q-225 0 -225 149q0 125 109 210t250 85q99 0 155 -30v1224h70l1636 -1h70v-1343q0 -125 -109.5 -210t-249.5 -85q-225 0 -225 149q0 125 109 210t250 85q99 0 155 -30v1045l-819 -1v-1163q0 -125 -109.5 -210t-249.5 -85 q-225 0 -225 149q0 125 109 210t250 85q99 0 155 -30v1044h-747v-1162z"/><glyph unicode="" horiz-adv-x="2350" d="M592 295q0 -125 -109.5 -210t-249.5 -85q-225 0 -225 149q0 125 109 210t250 85q99 0 155 -30v1224h70l1636 -1h70v-1343q0 -125 -109.5 -210t-249.5 -85q-225 0 -225 149q0 125 109 210t250 85q99 0 155 -30v767l-818 -1l-1 -886q0 -125 -109.5 -210t-249.5 -85 q-225 0 -225 149q0 125 109 210t250 85q99 0 155 -30l1 767h-748v-884zM1409 1359h819v99l-819 -1v-98zM592 1360l747 -1v98h-747v-97z"/><glyph unicode="" horiz-adv-x="2353" d="M592 295q0 -125 -109.5 -210t-249.5 -85q-225 0 -225 149q0 125 109 210t250 85q99 0 155 -30v1224h70l1636 -1h70v-1343q0 -125 -109.5 -210t-249.5 -85q-225 0 -225 149q0 125 109 210t250 85q99 0 155 -30v495l-815 -1l-4 -614q0 -125 -109.5 -210t-249.5 -85 q-225 0 -225 149q0 125 109 210t250 85q99 0 155 -30l4 495h-751v-612zM592 1088l1636 -1v93l-817 -1v-91h-70v91h-749v-91zM2228 1359v99l-819 -1v-98h819zM592 1360l747 -1v98h-747v-97z"/><glyph unicode="" horiz-adv-x="2350" d="M592 295q0 -125 -109.5 -210t-249.5 -85q-225 0 -225 149q0 125 109 210t250 85q99 0 155 -30v1224h70l1636 -1h70v-1343q0 -125 -109.5 -210t-249.5 -85q-225 0 -225 149q0 125 109 210t250 85q99 0 155 -30v767l-820 -1l1 -886q0 -125 -109.5 -210t-249.5 -85 q-225 0 -225 149q0 125 109 210t250 85q99 0 155 -30l-1 1045h-746v-1162zM1408 1457v-97l820 -1v99z"/><glyph unicode="" horiz-adv-x="2353" d="M1337 1180l-745 -1v-884q0 -125 -109.5 -210t-249.5 -85q-225 0 -225 149q0 125 109 210t250 85q99 0 155 -30v1224h70l1636 -1h70v-1343q0 -125 -109.5 -210t-249.5 -85q-225 0 -225 149q0 125 109 210t250 85q99 0 155 -30v1045l-822 -1l3 -1164q0 -125 -109.5 -210 t-249.5 -85q-225 0 -225 149q0 125 109 210t250 85q99 0 155 -30zM592 1360l744 -2v99h-744v-97z"/><glyph unicode="" horiz-adv-x="2350" d="M592 295q0 -125 -109.5 -210t-249.5 -85q-225 0 -225 149q0 125 109 210t250 85q99 0 155 -30v1224h70l1636 -1h70v-1343q0 -125 -109.5 -210t-249.5 -85q-225 0 -225 149q0 125 109 210t250 85q99 0 155 -30v495l-814 -1l-5 -614q0 -125 -109.5 -210t-249.5 -85 q-225 0 -225 149q0 125 109 210t250 85q99 0 155 -30l7 767h70l-1 -91l813 -1v371l-809 -1v-98h808v-179l-1635 -1v-884zM592 1360l757 -1v98h-757v-97z"/><glyph unicode="" horiz-adv-x="2353" d="M1339 909l-747 -2v-612q0 -125 -109.5 -210t-249.5 -85q-225 0 -225 149q0 125 109 210t250 85q99 0 155 -30v1224h70l1636 -1h70v-1343q0 -125 -109.5 -210t-249.5 -85q-225 0 -225 149q0 125 109 210t250 85q99 0 155 -30v767l-819 -1v-886q0 -125 -109.5 -210 t-249.5 -85q-225 0 -225 149q0 125 109 210t250 85q99 0 155 -30v497zM1409 1457v-98h819v99zM592 1360l747 -1v98h-747v-97zM1339 1088v91h-747v-91h747z"/><glyph unicode="" horiz-adv-x="2350" d="M592 295q0 -125 -109.5 -210t-249.5 -85q-225 0 -225 149q0 125 109 210t250 85q99 0 155 -30v1224h70l1636 -1h70v-1343q0 -125 -109.5 -210t-249.5 -85q-225 0 -225 149q0 125 109 210t250 85q99 0 155 -30v495l-820 -1l1 -614q0 -125 -109.5 -210t-249.5 -85 q-225 0 -225 149q0 125 109 210t250 85q99 0 155 -30v1045h-747v-1162zM1408 1457v-97l820 -1v99zM1408 1179v-91l820 -1v93zM592 89q0 18 7 33.5t20 27t29.5 18t36.5 6.5q19 0 36.5 -6.5t30 -18t20 -27t7.5 -33.5t-7.5 -33.5t-20 -27t-30 -18t-36.5 -6.5q-20 0 -36.5 6.5 t-29.5 18t-20 27t-7 33.5z"/><glyph unicode="" horiz-adv-x="2353" d="M592 427q0 -125 -109.5 -210t-249.5 -85q-225 0 -225 149q0 125 109 210t250 85q99 0 155 -30v1092h70l1636 -1h70v-1211q0 -125 -109.5 -210t-249.5 -85q-225 0 -225 149q0 125 109 210t250 85q99 0 155 -30v913l-819 -1v-1032q0 -125 -109.5 -210t-249.5 -85 q-225 0 -225 149q0 125 109 210t250 85q99 0 155 -30v913h-747v-1030zM1219 -169q55 -41 55 -88q0 -35 -24 -68t-61 -53.5t-76 -20.5q-73 0 -109 24.5t-36 59.5q0 24 15 43.5t35 19.5q22 0 36 -12t14 -30q0 -15 -15.5 -30.5t-19.5 -24.5q5 -8 11 -12t15 -6t19 -5 q47 5 76 48.5t29 90.5q0 33 -21 46.5t-37 13.5l10 31q47 0 82.5 24.5t37.5 72.5q0 73 -58 73q-42 0 -50 -27q2 -8 11.5 -22.5t9.5 -23.5q0 -33 -41 -39q-4 4 -10 4q-30 5 -36 38q2 35 38.5 66.5t92.5 31.5q61 -1 93 -30.5t36 -70.5q0 -79 -122 -124z"/><glyph unicode="" horiz-adv-x="2359" d="M592 1178v-751q0 -125 -109.5 -210t-249.5 -85q-225 0 -225 149q0 125 109 210t250 85q99 0 155 -30v1092h70l1636 -1h70v-1211q0 -125 -109.5 -210t-249.5 -85q-225 0 -225 149q0 125 109 210t250 85q99 0 155 -30v634l-819 -1v-753q0 -125 -109.5 -210t-249.5 -85 q-225 0 -225 149q0 125 109 210t250 85q99 0 155 -30v634h-747zM1409 1457v-99h819v100zM592 1359l747 -1v99h-747v-98zM1219 -169q55 -41 55 -88q0 -35 -24 -68t-61 -53.5t-76 -20.5q-73 0 -109 24.5t-36 59.5q0 24 15 43.5t35 19.5q22 0 36 -12t14 -30q0 -15 -15.5 -30.5 t-19.5 -24.5q5 -8 11 -12t15 -6t19 -5q47 5 76 48.5t29 90.5q0 33 -21 46.5t-37 13.5l10 31q47 0 82.5 24.5t37.5 72.5q0 73 -58 73q-42 0 -50 -27q2 -8 11.5 -22.5t9.5 -23.5q0 -33 -41 -39q-4 4 -10 4q-30 5 -36 38q2 35 38.5 66.5t92.5 31.5q61 -1 93 -30.5t36 -70.5 q0 -79 -122 -124z"/><glyph unicode="" horiz-adv-x="2379" d="M1339 902h-747v-475q0 -125 -109.5 -210t-249.5 -85q-225 0 -225 149q0 125 109 210t250 85q99 0 155 -30v1092h70l1636 -1h70v-1211q0 -125 -109.5 -210t-249.5 -85q-225 0 -225 149q0 125 109 210t250 85q99 0 155 -30v358l-819 -1v-477q0 -125 -109.5 -210t-249.5 -85 q-225 0 -225 149q0 125 109 210t250 85q99 0 155 -30v358zM1409 1457v-98h819v99zM2228 1082v98l-816 -1v-97h816zM592 1360l747 -1v98h-747v-97zM592 1083l750 -1v97h-750v-96zM1219 -169q55 -41 55 -88q0 -35 -24 -68t-61 -53.5t-76 -20.5q-73 0 -109 24.5t-36 59.5 q0 24 15 43.5t35 19.5q22 0 36 -12t14 -30q0 -15 -15.5 -30.5t-19.5 -24.5q5 -8 11 -12t15 -6t19 -5q47 5 76 48.5t29 90.5q0 33 -21 46.5t-37 13.5l10 31q47 0 82.5 24.5t37.5 72.5q0 73 -58 73q-42 0 -50 -27q2 -8 11.5 -22.5t9.5 -23.5q0 -33 -41 -39q-4 4 -10 4 q-30 5 -36 38q2 35 38.5 66.5t92.5 31.5q61 -1 93 -30.5t36 -70.5q0 -79 -122 -124z"/><glyph unicode="" horiz-adv-x="2350" d="M1045 1088h292v91h-745v-884q0 -125 -109.5 -210t-249.5 -85q-225 0 -225 149q0 125 109 210t250 85q99 0 155 -30v1224h70l1636 -1h70v-1343q0 -125 -109.5 -210t-249.5 -85q-225 0 -225 149q0 125 109 210t250 85q99 0 155 -30v1045l-822 -1l3 -1164 q0 -125 -109.5 -210t-249.5 -85q-225 0 -225 149q0 125 109 210t250 85q99 0 155 -30l-2 497l-292 -2v181zM592 1360l744 -2v99h-744v-97zM592 89q0 18 7 33.5t20 27t29.5 18t36.5 6.5q19 0 36.5 -6.5t30 -18t20 -27t7.5 -33.5t-7.5 -33.5t-20 -27t-30 -18t-36.5 -6.5 q-20 0 -36.5 6.5t-29.5 18t-20 27t-7 33.5z"/><glyph unicode="" horiz-adv-x="2354" d="M592 295q0 -125 -109.5 -210t-249.5 -85q-225 0 -225 149q0 125 109 210t250 85q99 0 155 -30v1224h70l1636 -1h70v-1343q0 -125 -109.5 -210t-249.5 -85q-225 0 -225 149q0 125 109 210t250 85q99 0 155 -30v495l-295 -1v181l295 -1v93l-817 -1l-2 -886 q0 -125 -109.5 -210t-249.5 -85q-225 0 -225 149q0 125 109 210t250 85q99 0 155 -30l3 1045h-750v-1162zM1412 1360l816 -1v99l-816 -1v-97zM1410 90q0 18 7 33.5t20 27t29.5 18t36.5 6.5q19 0 36.5 -6.5t30 -18t20 -27t7.5 -33.5t-7.5 -33.5t-20 -27t-30 -18t-36.5 -6.5 q-20 0 -36.5 6.5t-29.5 18t-20 27t-7 33.5z"/><glyph unicode="" horiz-adv-x="2350" d="M592 1360h293v-179l-293 -2v-884q0 -125 -109.5 -210t-249.5 -85q-225 0 -225 149q0 125 109 210t250 85q99 0 155 -30v1224h70l1636 -1h70v-1343q0 -125 -109.5 -210t-249.5 -85q-225 0 -225 149q0 125 109 210t250 85q99 0 155 -30v768l-293 -2v181h293v98l-819 -1 v-1163q0 -125 -109.5 -210t-249.5 -85q-225 0 -225 149q0 125 109 210t250 85q99 0 155 -30v1044h-747v-97z"/><glyph unicode="" horiz-adv-x="2352" d="M592 295q0 -125 -109.5 -210t-249.5 -85q-225 0 -225 149q0 125 109 210t250 85q99 0 155 -30v1224h70l1636 -1h70v-1343q0 -125 -109.5 -210t-249.5 -85q-225 0 -225 149q0 125 109 210t250 85q99 0 155 -30v1045l-822 -1l3 -1164q0 -125 -109.5 -210t-249.5 -85 q-225 0 -225 149q0 125 109 210t250 85q99 0 155 -30l-2 767l-295 -2v181h294v99h-744v-1162zM592 89q0 18 7 33.5t20 27t29.5 18t36.5 6.5q19 0 36.5 -6.5t30 -18t20 -27t7.5 -33.5t-7.5 -33.5t-20 -27t-30 -18t-36.5 -6.5q-20 0 -36.5 6.5t-29.5 18t-20 27t-7 33.5z"/><glyph unicode="" horiz-adv-x="2349" d="M592 1357h294v-179l-294 -1v-882q0 -125 -109.5 -210t-249.5 -85q-225 0 -225 149q0 125 109 210t250 85q99 0 155 -30v1224h70l1636 -1h70v-1343q0 -125 -109.5 -210t-249.5 -85q-225 0 -225 149q0 125 109 210t250 85q99 0 155 -30v1045l-816 -1l-3 -1164 q0 -125 -109.5 -210t-249.5 -85q-225 0 -225 149q0 125 109 210t250 85q99 0 155 -30l3 1045h-750v-100zM1410 90q0 18 7 33.5t20 27t29.5 18t36.5 6.5q19 0 36.5 -6.5t30 -18t20 -27t7.5 -33.5t-7.5 -33.5t-20 -27t-30 -18t-36.5 -6.5q-20 0 -36.5 6.5t-29.5 18t-20 27 t-7 33.5z"/><glyph unicode="" horiz-adv-x="2801" d="M592 1638l2080 -1v-1h69v-1343q0 -125 -109.5 -210t-249.5 -85q-225 0 -225 149q0 125 109 210t250 85q99 0 155 -30v1046h-647v-1163q0 -125 -109.5 -210t-249.5 -85q-225 0 -225 149q0 125 109 210t250 85q99 0 155 -30v1044h-646v-1162q0 -125 -109.5 -210t-249.5 -85 q-225 0 -225 149q0 125 109 210t250 85q99 0 155 -30v1043l-646 1v-1164q0 -125 -109.5 -210t-249.5 -85q-225 0 -225 149q0 125 109 210t250 85q99 0 155 -30v1224h70z"/><glyph unicode="" horiz-adv-x="2801" d="M592 1638l2080 -1v-1h69v-1343q0 -125 -109.5 -210t-249.5 -85q-225 0 -225 149q0 125 109 210t250 85q99 0 155 -30v767h-647v-884q0 -125 -109.5 -210t-249.5 -85q-225 0 -225 149q0 125 109 210t250 85q99 0 155 -30l2 765h-647l-1 -883q0 -125 -109.5 -210 t-249.5 -85q-225 0 -225 149q0 125 109 210t250 85q99 0 155 -30l1 764h-647v-884q0 -125 -109.5 -210t-249.5 -85q-225 0 -225 149q0 125 109 210t250 85q99 0 155 -30v1224h70zM2023 1359l648 -1v100h-648v-99zM592 1360l647 -1v99l-647 1v-99zM1309 1359h644v99h-644v-99 z"/><glyph unicode="" horiz-adv-x="2807" d="M592 1638l2080 -1v-1h69v-1343q0 -125 -109.5 -210t-249.5 -85q-225 0 -225 149q0 125 109 210t250 85q99 0 155 -30v488h-648l1 -605q0 -125 -109.5 -210t-249.5 -85q-225 0 -225 149q0 125 109 210t250 85q99 0 155 -30l1 486h-646l-1 -604q0 -125 -109.5 -210 t-249.5 -85q-225 0 -225 149q0 125 109 210t250 85q99 0 155 -30l1 485h-647v-605q0 -125 -109.5 -210t-249.5 -85q-225 0 -225 149q0 125 109 210t250 85q99 0 155 -30v1224h70zM2671 1358v100h-648v-100h648zM2671 1079v100h-647v-100h647zM1953 1458h-644v-99l644 -1v100 zM1954 1179h-644v-99l644 -1v100zM1239 1359v99l-647 1v-99zM1240 1080v99h-648v-98z"/><glyph unicode="" horiz-adv-x="2804" d="M592 1638l2080 -1v-1h69v-1343q0 -125 -109.5 -210t-249.5 -85q-225 0 -225 149q0 125 109 210t250 85q99 0 155 -30v1046h-647v-1163q0 -125 -109.5 -210t-249.5 -85q-225 0 -225 149q0 125 109 210t250 85q99 0 155 -30v1044h-646v-1162q0 -125 -109.5 -210t-249.5 -85 q-225 0 -225 149q0 125 109 210t250 85q99 0 155 -30v767l-292 -2v181h292v97l-646 1v-1164q0 -125 -109.5 -210t-249.5 -85q-225 0 -225 149q0 125 109 210t250 85q99 0 155 -30v1224h70zM532 85q0 35 25 59t61 24q35 0 57.5 -24t22.5 -59t-22.5 -58.5t-57.5 -23.5 q-36 0 -61 23.5t-25 58.5z"/><glyph unicode="" horiz-adv-x="2804" d="M592 1638l2080 -1v-1h69v-1343q0 -125 -109.5 -210t-249.5 -85q-225 0 -225 149q0 125 109 210t250 85q99 0 155 -30v770l-291 -2v181h291v97h-647v-1163q0 -125 -109.5 -210t-249.5 -85q-225 0 -225 149q0 125 109 210t250 85q99 0 155 -30v1044h-646v-1162 q0 -125 -109.5 -210t-249.5 -85q-225 0 -225 149q0 125 109 210t250 85q99 0 155 -30v767l-292 -2v181h292v97h-646v-1163q0 -125 -109.5 -210t-249.5 -85q-225 0 -225 149q0 125 109 210t250 85q99 0 155 -30v1224h70zM1964 84q0 35 25 59t61 24q35 0 57.5 -24t22.5 -59 t-22.5 -58.5t-57.5 -23.5q-36 0 -61 23.5t-25 58.5zM532 85q0 35 25 59t61 24q35 0 57.5 -24t22.5 -59t-22.5 -58.5t-57.5 -23.5q-36 0 -61 23.5t-25 58.5z"/><glyph unicode="" horiz-adv-x="2803" d="M592 1638l2081 -1v-1h69l-1 -1343q0 -125 -109.5 -210t-249.5 -85q-225 0 -225 149q0 125 109 210t250 85q99 0 155 -30v476l-291 -2v181h291v112h-647v-884q0 -125 -109.5 -210t-249.5 -85q-225 0 -225 149q0 125 109 210t250 85q99 0 155 -30v765h-645l-1 -883 q0 -125 -109.5 -210t-249.5 -85q-225 0 -225 149q0 125 109 210t250 85q99 0 155 -30v473l-292 -2v181h293v112h-647v-884q0 -125 -109.5 -210t-249.5 -85q-225 0 -225 149q0 125 109 210t250 85q99 0 155 -30v1224h70zM2023 1359l648 -1v100h-648v-99zM592 1360l647 -1v99 h-647v-98zM1309 1359h644v99h-644v-99zM532 85q0 35 25 59t61 24q35 0 57.5 -24t22.5 -59t-22.5 -58.5t-57.5 -23.5q-36 0 -61 23.5t-25 58.5zM1964 84q0 35 25 59t61 24q35 0 57.5 -24t22.5 -59t-22.5 -58.5t-57.5 -23.5q-36 0 -61 23.5t-25 58.5z"/><glyph unicode="" horiz-adv-x="2902" d="M592 1638l2079 -1v-1h70v-1343q0 -125 -109.5 -210t-249.5 -85q-225 0 -225 149q0 125 109 210t250 85q99 0 155 -30l-1 1046h-646v-100h292v-179l-292 -2v-882q0 -125 -109.5 -210t-249.5 -85q-225 0 -225 149q0 125 109 210t250 85q99 0 155 -30v1044h-646v-1162 q0 -125 -109.5 -210t-249.5 -85q-225 0 -225 149q0 125 109 210t250 85q99 0 155 -30v1043l-646 1v-98h294v-179l-294 -2v-885q0 -125 -109.5 -210t-249.5 -85q-225 0 -225 149q0 125 109 210t250 85q99 0 155 -30v1224h70zM532 85q0 35 25 59t61 24q35 0 57.5 -24t22.5 -59 t-22.5 -58.5t-57.5 -23.5q-36 0 -61 23.5t-25 58.5zM2703 84q0 35 25 59t61 24q35 0 57.5 -24t22.5 -59t-22.5 -58.5t-57.5 -23.5q-36 0 -61 23.5t-25 58.5z"/><glyph unicode="" horiz-adv-x="2803" d="M1238 1359h1v99l-647 1v-1164q0 -125 -109.5 -210t-249.5 -85q-225 0 -225 149q0 125 109 210t250 85q99 0 155 -30v1224h70l2079 -1v-1h70v-1343q0 -125 -109.5 -210t-249.5 -85q-225 0 -225 149q0 125 109 210t250 85q99 0 155 -30v1046h-648v-102l1 -18v-1043 q0 -125 -109.5 -210t-249.5 -85q-225 0 -225 149q0 125 109 210t250 85q99 0 155 -30l2 765l-647 -1l-1 -882q0 -125 -109.5 -210t-249.5 -85q-225 0 -225 149q0 125 109 210t250 85q99 0 155 -30l1 763h-1v181zM1953 1458h-644v-100l644 -3v103z"/><glyph unicode="" horiz-adv-x="2801" d="M592 1638l2080 -1v-1h69v-1343q0 -125 -109.5 -210t-249.5 -85q-225 0 -225 149q0 125 109 210t250 85q99 0 155 -30v1046h-648l1 -1163q0 -125 -109.5 -210t-249.5 -85q-225 0 -225 149q0 125 109 210t250 85q99 0 155 -30l1 1044h-646v-279l-1 -883q0 -125 -109.5 -210 t-249.5 -85q-225 0 -225 149q0 125 109 210t250 85q99 0 155 -30l1 764h-647v-884q0 -125 -109.5 -210t-249.5 -85q-225 0 -225 149q0 125 109 210t250 85q99 0 155 -30v1224h70zM592 1360l647 -2v100l-647 1v-99z"/><glyph unicode="" horiz-adv-x="2811" d="M592 1638l2080 -1v-1h69v-1343q0 -125 -109.5 -210t-249.5 -85q-225 0 -225 149q0 125 109 210t250 85q99 0 155 -30v767h-647v-884q0 -125 -109.5 -210t-249.5 -85q-225 0 -225 149q0 125 109 210t250 85q99 0 155 -30l2 765v180h-2v99h-645l-1 -1162 q0 -125 -109.5 -210t-249.5 -85q-225 0 -225 149q0 125 109 210t250 85q99 0 155 -30l1 1043l-647 1v-1164q0 -125 -109.5 -210t-249.5 -85q-225 0 -225 149q0 125 109 210t250 85q99 0 155 -30v1224h70zM2671 1358v100h-648v-98z"/><glyph unicode="" horiz-adv-x="2803" d="M592 1638l2080 -1v-1h69v-1343q0 -125 -109.5 -210t-249.5 -85q-225 0 -225 149q0 125 109 210t250 85q99 0 155 -30v764l-292 -2v181h292v103h-647v-1163q0 -125 -109.5 -210t-249.5 -85q-225 0 -225 149q0 125 109 210t250 85q99 0 155 -30v1044h-646v-1162 q0 -125 -109.5 -210t-249.5 -85q-225 0 -225 149q0 125 109 210t250 85q99 0 155 -30v1043l-646 1v-100h293v-179l-293 -2v-883q0 -125 -109.5 -210t-249.5 -85q-225 0 -225 149q0 125 109 210t250 85q99 0 155 -30v1224h70z"/><glyph unicode="" horiz-adv-x="2811" d="M592 1638l2080 -1v-1h69v-1343q0 -125 -109.5 -210t-249.5 -85q-225 0 -225 149q0 125 109 210t250 85q99 0 155 -30v767h-647v-100l-1 -1v-178l1 -605q0 -125 -109.5 -210t-249.5 -85q-225 0 -225 149q0 125 109 210t250 85q99 0 155 -30l1 486l-646 -2l-1 -602 q0 -125 -109.5 -210t-249.5 -85q-225 0 -225 149q0 125 109 210t250 85q99 0 155 -30l1 483h-1v182h2v99h-648v-884q0 -125 -109.5 -210t-249.5 -85q-225 0 -225 149q0 125 109 210t250 85q99 0 155 -30v1224h70zM2671 1358v100h-648v-99zM1310 1080l644 -2v101h-644v-99z M592 1360l647 -1v99l-647 1v-99zM1309 1359h644v99h-644v-99z"/><glyph unicode="" horiz-adv-x="2899" d="M2686 1637h70v-1343q0 -125 -109.5 -210t-249.5 -85q-225 0 -225 149q0 125 109 210t250 85q99 0 155 -30v765h-647v-884q0 -125 -109.5 -210t-249.5 -85q-225 0 -225 149q0 125 109 210t250 85q99 0 155 -30l2 765h-647l-1 -883q0 -125 -109.5 -210t-249.5 -85 q-225 0 -225 149q0 125 109 210t250 85q99 0 155 -30l1 764v280l-662 1v-1164q0 -125 -109.5 -210t-249.5 -85q-225 0 -225 149q0 125 109 210t250 85q99 0 155 -30v1224h70l2094 -2v1zM2038 1458v-100l648 -1v100zM1324 1360l644 -2v100h-644v-98zM552 87q0 35 25 59t61 24 q35 0 57.5 -24t22.5 -59t-22.5 -58.5t-57.5 -23.5q-36 0 -61 23.5t-25 58.5z"/><glyph unicode="" horiz-adv-x="2900" d="M592 1638l2153 1v-1h69v-1343q0 -125 -109.5 -210t-249.5 -85q-225 0 -225 149q0 125 109 210t250 85q99 0 155 -30v767h-647v-884q0 -125 -109.5 -210t-249.5 -85q-225 0 -225 149q0 125 109 210t250 85q99 0 155 -30l2 765h-647l-1 -883q0 -125 -109.5 -210t-249.5 -85 q-225 0 -225 149q0 125 109 210t250 85q99 0 155 -30l1 764v278h-720v-1164q0 -125 -109.5 -210t-249.5 -85q-225 0 -225 149q0 125 109 210t250 85q99 0 155 -30v1224h70zM2096 1361l648 -1v100l-648 -1v-98zM1382 1362l644 -1v98h-644v-97zM1899 -210q48 -34 48 -74 q0 -29 -20.5 -56.5t-52.5 -45t-65 -17.5q-62 0 -93.5 20.5t-31.5 50.5q0 20 13 36.5t30 16.5q20 0 31.5 -10.5t11.5 -25.5q0 -12 -13 -25t-16 -21q4 -6 9 -10t12.5 -5t16.5 -4q40 4 65 40.5t25 75.5q0 28 -18 39.5t-62 11.5l8 26q71 0 101.5 20.5t32.5 60.5q0 61 -50 61 q-36 0 -43 -22q2 -7 10 -19t8 -20q0 -27 -35 -33q-4 4 -8 4q-26 4 -31 32q1 29 32.5 55.5t79.5 26.5q52 -1 79.5 -26t31.5 -59q0 -66 -106 -104z"/><glyph unicode="" horiz-adv-x="2900" d="M592 1638l2148 -1h70v-1343q0 -125 -109.5 -210t-249.5 -85q-225 0 -225 149q0 125 109 210t250 85q99 0 155 -30v487h-648l1 -605q0 -125 -109.5 -210t-249.5 -85q-225 0 -225 149q0 125 109 210t250 85q99 0 155 -30l1 486h-647v-604q0 -125 -109.5 -210t-249.5 -85 q-225 0 -225 149q0 125 109 210t250 85q99 0 155 -30v485h1v181h1v97l-1 1v279l-716 1v-1164q0 -125 -109.5 -210t-249.5 -85q-225 0 -225 149q0 125 109 210t250 85q99 0 155 -30v1224h70zM2092 1359l648 -1v100h-648v-99zM2093 1080l647 -1v100h-647v-99zM1378 1360 l644 -1v99h-644v-98zM1379 1081l644 -1v99h-644v-98zM1895 -212q48 -34 48 -74q0 -29 -20.5 -56.5t-52.5 -45t-65 -17.5q-62 0 -93.5 20.5t-31.5 50.5q0 20 13 36.5t30 16.5q20 0 31.5 -10.5t11.5 -25.5q0 -12 -13 -25t-16 -21q4 -6 9 -10t12.5 -5t16.5 -4q40 4 65 40.5 t25 75.5q0 28 -18 39.5t-62 11.5l8 26q71 0 101.5 20.5t32.5 60.5q0 61 -50 61q-36 0 -43 -22q2 -7 10 -19t8 -20q0 -27 -35 -33q-4 4 -8 4q-26 4 -31 32q1 29 32.5 55.5t79.5 26.5q52 -1 79.5 -26t31.5 -59q0 -66 -106 -104zM538 81q0 35 25 59t61 24q35 0 57.5 -24 t22.5 -59t-22.5 -58.5t-57.5 -23.5q-36 0 -61 23.5t-25 58.5z"/><glyph unicode="" horiz-adv-x="2752" d="M979 852l-1 2v129h-1v71h-510v-838q0 -90 -86 -151t-197 -61q-177 0 -177 107q0 90 86 151.5t197 61.5q78 0 122 -22v881h2313v-967q0 -90 -86.5 -151t-196.5 -61q-177 0 -177 107q0 90 85.5 151.5t197.5 61.5q78 0 122 -22v556l-509 -2l-1 -638q0 -90 -86.5 -151.5 t-196.5 -61.5q-177 0 -177 108q0 90 85.5 151t197.5 61q78 0 122 -22l2 553l-509 -1l-2 -639q0 -90 -86.5 -151t-196.5 -61q-178 0 -178 107q0 90 86 151.5t197 61.5q78 0 122 -22l3 553l-509 -1l-3 -637q0 -90 -86 -151t-196 -61q-178 0 -178 107q0 90 86 151t197 61 q78 0 122 -21zM1592 984h512v70h-512v-70zM2159 1054v-70l511 1v70zM1032 984h505v70h-505v-70z"/><glyph unicode="" horiz-adv-x="2751" d="M977 653h1v330h-1v71h-510v-838q0 -90 -86 -151t-197 -61q-177 0 -177 107q0 90 86 151.5t197 61.5q78 0 122 -22v881h2313v-967q0 -90 -86.5 -151t-196.5 -61q-177 0 -177 107q0 90 85.5 151.5t197.5 61.5q78 0 122 -22v354l-511 -1l1 -437q0 -90 -86.5 -151.5 t-196.5 -61.5q-177 0 -177 108q0 90 85.5 151t197.5 61q78 0 122 -22v352l-509 -1v-438q0 -90 -86.5 -151t-196.5 -61q-178 0 -178 107q0 90 86 151.5t197 61.5q78 0 122 -22l1 352l-509 -1l-1 -436q0 -90 -86 -151t-196 -61q-178 0 -178 107q0 90 86 151t197 61 q78 0 122 -21zM2160 856v-73l510 1v74zM1593 783h512v73l-512 -1v-72zM1033 783h505v72l-505 -1v-71zM1592 984h512v70h-512v-70zM2159 1054v-70l511 1v70zM1032 984h505v70h-505v-70z"/><glyph unicode="" horiz-adv-x="2751" d="M2160 855v-200l-1 -1l1 -436q0 -90 -86.5 -151.5t-196.5 -61.5q-177 0 -177 108q0 90 85.5 151t197.5 61q78 0 122 -22v352l-509 -1v-438q0 -90 -86.5 -151t-196.5 -61q-178 0 -178 107q0 90 86 151.5t197 61.5q78 0 122 -22l1 352l-564 -1h55l-1 -436q0 -90 -86 -151 t-196 -61q-178 0 -178 107q0 90 86 151t197 61q78 0 122 -21l1 350l-510 -1v-436q0 -90 -86 -151t-197 -61q-177 0 -177 107q0 90 86 151.5t197 61.5q78 0 122 -22v881h2313v-967q0 -90 -86.5 -151t-196.5 -61q-177 0 -177 107q0 90 85.5 151.5t197.5 61.5q78 0 122 -22v753 l-511 -1v-197zM1593 782l512 1v74l-512 -2v-73zM1033 782h505v73l-505 -1v-72zM978 782v72l-511 -1v-71h511zM1592 983l512 1v70h-512v-71zM977 983v71h-510v-71h510zM1032 983h505v71h-505v-71z"/><glyph unicode="" horiz-adv-x="2602" d="M319 936h2225v-765q0 -72 -66.5 -120t-151.5 -48q-137 0 -137 84q0 72 66 120.5t153 48.5q60 0 94 -17v596l-398 -1l4 -662q0 -71 -67 -120t-152 -49q-137 0 -137 86q0 71 66 119.5t153 48.5q60 0 94 -18l-2 595h-395l3 -662q0 -71 -67 -120t-152 -49q-137 0 -137 86 q0 71 66 119.5t153 48.5q61 0 94 -18l-2 595h-394l2 -664q0 -72 -66.5 -120t-152.5 -48q-137 0 -137 85q0 71 66 119.5t153 48.5q60 0 94 -17l-2 596l-393 -1l1 -662q0 -72 -66 -120t-152 -48q-137 0 -137 84q0 72 66 120t153 48q60 0 94 -16l-2 594h-392v-663 q0 -72 -66 -120t-152 -48q-137 0 -137 85q0 71 66.5 119.5t152.5 48.5q60 0 94 -17v698z"/><glyph unicode="" horiz-adv-x="2599" d="M319 936h2225v-765q0 -72 -66.5 -120t-151.5 -48q-137 0 -137 84q0 72 66 120.5t153 48.5q60 0 94 -17v417l-395 -1l1 -483q0 -71 -67 -120t-152 -49q-137 0 -137 86q0 71 66 119.5t153 48.5q60 0 94 -18l1 416h-395v-483q0 -71 -67 -120t-152 -49q-137 0 -137 86 q0 71 66 119.5t153 48.5q61 0 94 -18l1 416h-394l-1 -485q0 -72 -66.5 -120t-152.5 -48q-137 0 -137 85q0 71 66 119.5t153 48.5q60 0 94 -17l1 417l-393 -1l-2 -483q0 -72 -66 -120t-152 -48q-137 0 -137 84q0 72 66 120t153 48q60 0 94 -16l1 415h-395v-484 q0 -72 -66 -120t-152 -48q-137 0 -137 85q0 71 66.5 119.5t152.5 48.5q60 0 94 -17v698zM2502 835l-395 -1v-77h395v78zM1237 757h395v77h-395v-77zM361 757h398v76h-398v-76zM801 757h394v77l-394 -1v-76zM1674 757h391v77h-391v-77z"/><glyph unicode="" horiz-adv-x="2600" d="M319 936h2225v-765q0 -72 -66.5 -120t-151.5 -48q-137 0 -137 84q0 72 66 120.5t153 48.5q60 0 94 -17v596l-398 -1l4 -662q0 -71 -67 -120t-152 -49q-137 0 -137 86q0 71 66 119.5t153 48.5q60 0 94 -18l-2 595h-395l3 -662q0 -71 -67 -120t-152 -49q-137 0 -137 86 q0 71 66 119.5t153 48.5q61 0 94 -18l-2 595h-394l2 -664q0 -72 -66.5 -120t-152.5 -48q-137 0 -137 85q0 71 66 119.5t153 48.5q60 0 94 -17l-2 596l-393 -1l1 -662q0 -72 -66 -120t-152 -48q-137 0 -137 84q0 72 66 120t153 48q60 0 94 -16l-2 594h-392v-663 q0 -72 -66 -120t-152 -48q-137 0 -137 85q0 71 66.5 119.5t152.5 48.5q60 0 94 -17v698zM1232 -199q59 35 102 35q40 0 59.5 -24t19.5 -64q0 -62 -47.5 -106.5t-122.5 -44.5q-110 4 -110 127q0 43 16 90.5t45 87t66.5 63.5t80.5 24q41 0 62.5 -20t21.5 -48q0 -21 -14 -36 t-36 -15q-41 0 -46 30q2 19 14.5 36t31.5 23q-14 4 -30 4q-39 0 -64.5 -29t-37 -67t-11.5 -66zM1298 -199q-23 0 -45.5 -29.5t-33.5 -67.5q0 -10 -6 -33q6 -44 30 -44q44 0 65 40t21 81q0 50 -31 53z"/><glyph unicode="" horiz-adv-x="2600" d="M319 936h2225v-765q0 -72 -66.5 -120t-151.5 -48q-137 0 -137 84q0 72 66 120.5t153 48.5q60 0 94 -17v417l-395 -1l1 -483q0 -71 -67 -120t-152 -49q-137 0 -137 86q0 71 66 119.5t153 48.5q60 0 94 -18l1 416h-395v-483q0 -71 -67 -120t-152 -49q-137 0 -137 86 q0 71 66 119.5t153 48.5q61 0 94 -18l1 416h-394l-1 -485q0 -72 -66.5 -120t-152.5 -48q-137 0 -137 85q0 71 66 119.5t153 48.5q60 0 94 -17l1 417l-393 -1l-2 -483q0 -72 -66 -120t-152 -48q-137 0 -137 84q0 72 66 120t153 48q60 0 94 -16l1 415h-395v-484 q0 -72 -66 -120t-152 -48q-137 0 -137 85q0 71 66.5 119.5t152.5 48.5q60 0 94 -17v698zM1232 -199q59 35 102 35q40 0 59.5 -24t19.5 -64q0 -62 -47.5 -106.5t-122.5 -44.5q-110 4 -110 127q0 43 16 90.5t45 87t66.5 63.5t80.5 24q41 0 62.5 -20t21.5 -48q0 -21 -14 -36 t-36 -15q-41 0 -46 30q2 19 14.5 36t31.5 23q-14 4 -30 4q-39 0 -64.5 -29t-37 -67t-11.5 -66zM2107 834v-77h395v78zM1237 757h395v77h-395v-77zM361 757h398v76h-398v-76zM1674 757h391v77h-391v-77zM801 757h394v77l-394 -1v-76zM1298 -199q-23 0 -45.5 -29.5 t-33.5 -67.5q0 -10 -6 -33q6 -44 30 -44q44 0 65 40t21 81q0 50 -31 53z"/><glyph unicode="" horiz-adv-x="2604" d="M1192 757h3v77l-394 -1v-77h1v-101l-3 -1l-2 -483q0 -72 -66 -120t-152 -48q-137 0 -137 84q0 72 66 120t153 48q60 0 94 -16l1 416l-395 -2v-483q0 -72 -66 -120t-152 -48q-137 0 -137 85q0 71 66.5 119.5t152.5 48.5q60 0 94 -17v698h2225v-765q0 -72 -66.5 -120 t-151.5 -48q-137 0 -137 84q0 72 66 120.5t153 48.5q60 0 94 -17v417l-395 -1l1 -483q0 -71 -67 -120t-152 -49q-137 0 -137 86q0 71 66 119.5t153 48.5q60 0 94 -18l1 416l-395 -1v-482q0 -71 -67 -120t-152 -49q-137 0 -137 86q0 71 66 119.5t153 48.5q61 0 94 -18l1 415 h-394l-1 -484q0 -72 -66.5 -120t-152.5 -48q-137 0 -137 85q0 71 66 119.5t153 48.5q60 0 94 -17l1 416v103zM361 756h398v77h-398v-77zM2502 835l-395 -1v-77h395v78zM1237 757h395v77h-395v-77zM1674 757h391v77h-391v-77z"/><glyph unicode="" horiz-adv-x="2609" d="M1193 473v103v0v78v0v103v0v77l-392 -1v-77h2v-101h-4l-2 -484q0 -72 -66 -120t-152 -48q-137 0 -137 84q0 72 66 120t153 48q60 0 94 -16l1 416v1l-395 -3v-483q0 -72 -66 -120t-152 -48q-137 0 -137 85q0 71 66.5 119.5t152.5 48.5q60 0 94 -17v698h2225v-765 q0 -72 -66.5 -120t-151.5 -48q-137 0 -137 84q0 72 66 120.5t153 48.5q60 0 94 -17v236l-395 -1l1 -302q0 -71 -67 -120t-152 -49q-137 0 -137 86q0 71 66 119.5t153 48.5q60 0 94 -18l1 235l-395 -1v-301q0 -71 -67 -120t-152 -49q-137 0 -137 86q0 71 66 119.5t153 48.5 q61 0 94 -18l1 234h-394l-1 -303q0 -72 -66.5 -120t-152.5 -48q-137 0 -137 85q0 71 66 119.5t153 48.5q60 0 94 -17zM2068 576v79l-399 -1v-78h399zM2502 576v80l-392 -1v-79h392zM1666 757h402v77h-402v-77zM361 756h398v77h-398v-77zM1235 576h392v78h-392v-78zM2110 834 v-77h392v78zM1235 757h389v77h-389v-77z"/><glyph unicode="" horiz-adv-x="2602" d="M1629 479l-394 -2l-1 -307q0 -72 -66.5 -120t-152.5 -48q-137 0 -137 85q0 71 66 119.5t153 48.5q60 0 94 -17l1 239l-392 -1l-3 -305q0 -72 -66 -120t-152 -48q-137 0 -137 84q0 72 66 120t153 48q60 0 94 -16l2 237l-396 -1v-305q0 -72 -66 -120t-152 -48 q-137 0 -137 85q0 71 66.5 119.5t152.5 48.5q60 0 94 -17v698h2225v-765q0 -72 -66.5 -120t-151.5 -48q-137 0 -137 84q0 72 66 120.5t153 48.5q60 0 94 -17v418l-396 -2l2 -483q0 -71 -67 -120t-152 -49q-137 0 -137 86q0 71 66 119.5t153 48.5q60 0 94 -18v416h-3v103h1 v76h-397v-76h3v-101h-2v-79h3v-99h-41zM1629 479l42 -3v-304q0 -71 -67 -120t-152 -49q-137 0 -137 86q0 71 66 119.5t153 48.5q61 0 94 -18zM1235 658v-80h390v79zM361 578h400v77h-400v-77zM2105 834v-76h397v77zM1193 578v78l-390 -1v-77h390zM361 758h398v75h-398v-75z M801 758h392v76l-392 -1v-75zM1235 758h389v76h-389v-76z"/><glyph unicode="" horiz-adv-x="1819" d="M522 1638h1251v-1343q0 -125 -109.5 -210t-249.5 -85q-225 0 -225 149q0 125 109 210t250 85q99 0 155 -30v1045l-1111 -2v-1162q0 -125 -109.5 -210t-249.5 -85q-225 0 -225 149q0 125 109 210t250 85q99 0 155 -30v1224zM235 -68q162 -75 337 -120q173 -41 333 -41 q164 0 330 41q170 41 336 120q-135 -135 -307 -204q-174 -70 -360 -70q-187 0 -360 70q-176 69 -309 204z"/><glyph unicode="" horiz-adv-x="1819" d="M522 1638h1251v-1343q0 -125 -109.5 -210t-249.5 -85q-225 0 -225 149q0 125 109 210t250 85q99 0 155 -30v1045l-1111 -2v-1162q0 -125 -109.5 -210t-249.5 -85q-225 0 -225 149q0 125 109 210t250 85q99 0 155 -30v1224zM1394 -233q-25 26 -25 62t25.5 62t61.5 26 t61.5 -26t25.5 -62t-25.5 -62t-61.5 -26t-62 26zM207 -234q-25 26 -25 62t25.5 62t61.5 26t61.5 -26t25.5 -62t-25.5 -62t-61.5 -26t-62 26z"/><glyph unicode="" horiz-adv-x="1819" d="M522 1638h1251l2 -1170q0 -125 -109.5 -210t-249.5 -85q-225 0 -225 149q0 125 109 210t250 85q99 0 155 -30l-2 872l-1111 -2l2 -989q0 -125 -109.5 -210t-249.5 -85q-225 0 -225 149q0 125 109 210t250 85q99 0 155 -30zM238 -128q162 -75 337 -120q173 -41 333 -41 q164 0 330 41q170 41 336 120q-135 -135 -307 -204q-174 -70 -360 -70q-187 0 -360 70q-176 69 -309 204zM209 -56q-25 26 -25 62t25.5 62t61.5 26t61.5 -26t25.5 -62t-25.5 -62t-61.5 -26t-62 26zM1396 -55q-25 26 -25 62t25.5 62t61.5 26t61.5 -26t25.5 -62t-25.5 -62 t-61.5 -26t-62 26z"/><glyph unicode="" horiz-adv-x="1820" d="M522 1638h1251v-1343q0 -125 -109.5 -210t-249.5 -85q-225 0 -225 149q0 125 109 210t250 85q99 0 155 -30v771l-1111 -2v-888q0 -125 -109.5 -210t-249.5 -85q-225 0 -225 149q0 125 109 210t250 85q99 0 155 -30v1224zM235 -68q162 -75 337 -120q173 -41 333 -41 q164 0 330 41q170 41 336 120q-135 -135 -307 -204q-174 -70 -360 -70q-187 0 -360 70q-176 69 -309 204zM592 1364h1111v95l-1111 -2v-93z"/><glyph unicode="" horiz-adv-x="1822" d="M522 1638h70h1181v-1343q0 -125 -109.5 -210t-249.5 -85q-225 0 -225 149q0 125 109 210t250 85q99 0 155 -30v771l-1111 -2v-888q0 -125 -109.5 -210t-249.5 -85q-225 0 -225 149q0 125 109 210t250 85q99 0 155 -30v1224zM592 1364h1111v95l-1111 -2v-93zM207 -234 q-25 26 -25 62t25.5 62t61.5 26t61.5 -26t25.5 -62t-25.5 -62t-61.5 -26t-62 26zM1394 -233q-25 26 -25 62t25.5 62t61.5 26t61.5 -26t25.5 -62t-25.5 -62t-61.5 -26t-62 26z"/><glyph unicode="" horiz-adv-x="1822" d="M522 1638h1251l2 -1170q0 -125 -109.5 -210t-249.5 -85q-225 0 -225 149q0 125 109 210t250 85q99 0 155 -30l-1 598l-1111 -2l1 -715q0 -125 -109.5 -210t-249.5 -85q-225 0 -225 149q0 125 109 210t250 85q99 0 155 -30zM238 -128q162 -75 337 -120q173 -41 333 -41 q164 0 330 41q170 41 336 120q-135 -135 -307 -204q-174 -70 -360 -70q-187 0 -360 70q-176 69 -309 204zM592 1364h1111v95l-1111 -2v-93zM1396 -55q-25 26 -25 62t25.5 62t61.5 26t61.5 -26t25.5 -62t-25.5 -62t-61.5 -26t-62 26zM209 -56q-25 26 -25 62t25.5 62t61.5 26 t61.5 -26t25.5 -62t-25.5 -62t-61.5 -26t-62 26z"/><glyph unicode="" horiz-adv-x="1820" d="M482 85q-109 -85 -249 -85q-225 0 -225 149q0 125 109 210t250 85q99 0 155 -30v1224h1251v-1343q0 -125 -109.5 -210t-249.5 -85q-225 0 -225 149q0 125 109 210t250 85q99 0 155 -30v504l-1111 -2v-621q0 -125 -110 -210zM235 -68q162 -75 337 -120q173 -41 333 -41 q164 0 330 41q170 41 336 120q-135 -135 -307 -204q-174 -70 -360 -70q-187 0 -360 70q-176 69 -309 204zM592 1364h1111v95l-1111 -2v-93zM592 1097h1111v88l-1111 -2v-86z"/><glyph unicode="" horiz-adv-x="2351" d="M592 1638l1636 -1h70v-1343q0 -125 -109.5 -210t-249.5 -85q-225 0 -225 149q0 125 109 210t250 85q99 0 155 -30v1045l-819 -1v-1164q0 -125 -109.5 -210t-249.5 -85q-225 0 -225 149q0 125 109 210t250 85q99 0 155 -30v1045h-747v-1162q0 -125 -109.5 -210t-249.5 -85 q-225 0 -225 149q0 125 109 210t250 85q99 0 155 -30v1224h70zM129 -35q257 -90 535 -144q275 -48 529 -48q261 0 524 48q270 50 534 144q-215 -162 -488 -244q-276 -84 -571 -84q-297 0 -572 84q-280 82 -491 244z"/><glyph unicode="" horiz-adv-x="2356" d="M592 1638l1636 -1h70v-1343q0 -125 -109.5 -210t-249.5 -85q-225 0 -225 149q0 125 109 210t250 85q99 0 155 -30v1045l-819 -1v-1164q0 -125 -109.5 -210t-249.5 -85q-225 0 -225 149q0 125 109 210t250 85q99 0 155 -30v1045h-747v-1162q0 -125 -109.5 -210t-249.5 -85 q-225 0 -225 149q0 125 109 210t250 85q99 0 155 -30v1224h70zM1922 -232q-25 26 -25 62t25.5 62t61.5 26t61.5 -26t25.5 -62t-25.5 -62t-61.5 -26t-62 26zM1028 -234q-25 26 -25 62t25.5 62t61.5 26t61.5 -26t25.5 -62t-25.5 -62t-61.5 -26t-62 26zM207 -234q-25 26 -25 62 t25.5 62t61.5 26t61.5 -26t25.5 -62t-25.5 -62t-61.5 -26t-62 26z"/><glyph unicode="" horiz-adv-x="2353" d="M592 1638l1636 -1h70l-2 -1163q0 -125 -109.5 -210t-249.5 -85q-225 0 -225 149q0 125 109 210t250 85q99 0 155 -30l1 865l-818 -1l-2 -984q0 -125 -109.5 -210t-249.5 -85q-225 0 -225 149q0 125 109 210t250 85q99 0 155 -30l2 865h-747v181zM522 1638h70l-2 -1163 q0 -125 -109.5 -210t-249.5 -85q-225 0 -225 149q0 125 109 210t250 85q99 0 155 -30zM129 -74q257 -90 535 -144q275 -48 529 -48q261 0 524 48q270 50 534 144q-215 -162 -488 -244q-276 -84 -571 -84q-297 0 -572 84q-280 82 -491 244zM1918 -23q-25 26 -25 62t25.5 62 t61.5 26t61.5 -26t25.5 -62t-25.5 -62t-61.5 -26t-62 26zM203 -25q-25 26 -25 62t25.5 62t61.5 26t61.5 -26t25.5 -62t-25.5 -62t-61.5 -26t-62 26zM1024 -25q-25 26 -25 62t25.5 62t61.5 26t61.5 -26t25.5 -62t-25.5 -62t-61.5 -26t-62 26z"/><glyph unicode="" horiz-adv-x="2351" d="M592 1638l1636 -1h70v-1343q0 -125 -109.5 -210t-249.5 -85q-225 0 -225 149q0 125 109 210t250 85q99 0 155 -30v767l-818 -1l-1 -886q0 -125 -109.5 -210t-249.5 -85q-225 0 -225 149q0 125 109 210t250 85q99 0 155 -30l1 767h-748v-884q0 -125 -109.5 -210 t-249.5 -85q-225 0 -225 149q0 125 109 210t250 85q99 0 155 -30v1224h70zM129 -35q257 -90 535 -144q275 -48 529 -48q261 0 524 48q270 50 534 144q-215 -162 -488 -244q-276 -84 -571 -84q-297 0 -572 84q-280 82 -491 244zM1409 1457v-98h819v99zM592 1360l747 -1v98 h-747v-97z"/><glyph unicode="" horiz-adv-x="2352" d="M592 1638l1636 -1h70v-1343q0 -125 -109.5 -210t-249.5 -85q-225 0 -225 149q0 125 109 210t250 85q99 0 155 -30v767l-818 -1l-1 -886q0 -125 -109.5 -210t-249.5 -85q-225 0 -225 149q0 125 109 210t250 85q99 0 155 -30l1 767h-748v-884q0 -125 -109.5 -210 t-249.5 -85q-225 0 -225 149q0 125 109 210t250 85q99 0 155 -30v1224h70zM1409 1457v-98h819v99zM592 1360l747 -1v98h-747v-97zM207 -234q-25 26 -25 62t25.5 62t61.5 26t61.5 -26t25.5 -62t-25.5 -62t-61.5 -26t-62 26zM1028 -234q-25 26 -25 62t25.5 62t61.5 26 t61.5 -26t25.5 -62t-25.5 -62t-61.5 -26t-62 26zM1922 -232q-25 26 -25 62t25.5 62t61.5 26t61.5 -26t25.5 -62t-25.5 -62t-61.5 -26t-62 26z"/><glyph unicode="" horiz-adv-x="2352" d="M592 1638l1636 -1h70v-1343q0 -125 -109.5 -210t-249.5 -85q-225 0 -225 149q0 125 109 210t250 85q99 0 155 -30v773l-819 -3v-889q0 -125 -109.5 -210t-249.5 -85q-225 0 -225 149q0 125 109 210t250 85q99 0 155 -30v1044h-747v-1162q0 -125 -109.5 -210t-249.5 -85 q-225 0 -225 149q0 125 109 210t250 85q99 0 155 -30v1224h70zM906 -75q162 -75 337 -120q173 -41 333 -41q164 0 330 41q170 41 336 120q-135 -135 -307 -204q-174 -70 -360 -70q-187 0 -360 70q-176 69 -309 204zM2228 1365v93l-819 -1v-93z"/><glyph unicode="" horiz-adv-x="2352" d="M592 1638l1636 -1h70v-1343q0 -125 -109.5 -210t-249.5 -85q-225 0 -225 149q0 125 109 210t250 85q99 0 155 -30v773l-819 -3v-889q0 -125 -109.5 -210t-249.5 -85q-225 0 -225 149q0 125 109 210t250 85q99 0 155 -30v1044h-747v-1162q0 -125 -109.5 -210t-249.5 -85 q-225 0 -225 149q0 125 109 210t250 85q99 0 155 -30v1224h70zM2228 1458l-819 -1v-93l819 1v93zM1922 -232q-25 26 -25 62t25.5 62t61.5 26t61.5 -26t25.5 -62t-25.5 -62t-61.5 -26t-62 26zM1028 -234q-25 26 -25 62t25.5 62t61.5 26t61.5 -26t25.5 -62t-25.5 -62 t-61.5 -26t-62 26z"/><glyph unicode="" horiz-adv-x="2352" d="M592 1638l1636 -1h70v-1343q0 -125 -109.5 -210t-249.5 -85q-225 0 -225 149q0 125 109 210t250 85q99 0 155 -30v498l-819 -3v-614q0 -125 -109.5 -210t-249.5 -85q-225 0 -225 149q0 125 109 210t250 85q99 0 155 -30v1044h-747v-1162q0 -125 -109.5 -210t-249.5 -85 q-225 0 -225 149q0 125 109 210t250 85q99 0 155 -30v1224h70zM906 -75q162 -75 337 -120q173 -41 333 -41q164 0 330 41q170 41 336 120q-135 -135 -307 -204q-174 -70 -360 -70q-187 0 -360 70q-176 69 -309 204zM2228 1090v96l-819 -3v-94zM2228 1365v93l-819 -1v-93z M592 89q0 18 7 33.5t20 27t29.5 18t36.5 6.5q19 0 36.5 -6.5t30 -18t20 -27t7.5 -33.5t-7.5 -33.5t-20 -27t-30 -18t-36.5 -6.5q-20 0 -36.5 6.5t-29.5 18t-20 27t-7 33.5z"/><glyph unicode="" horiz-adv-x="2354" d="M592 1638l1636 -1h70v-1343q0 -125 -109.5 -210t-249.5 -85q-225 0 -225 149q0 125 109 210t250 85q99 0 155 -30v1045l-816 -1l-1 -97l-2 -1067q0 -125 -109.5 -210t-249.5 -85q-225 0 -225 149q0 125 109 210t250 85q99 0 155 -30l2 768l-297 -1v181l297 -1l1 98h-750 v-1162q0 -125 -109.5 -210t-249.5 -85q-225 0 -225 149q0 125 109 210t250 85q99 0 155 -30v1224h70zM129 -35q257 -90 535 -144q275 -48 529 -48q261 0 524 48q270 50 534 144q-215 -162 -488 -244q-276 -84 -571 -84q-297 0 -572 84q-280 82 -491 244zM589 89q0 18 7 33.5 t20 27t29.5 18t36.5 6.5q19 0 36.5 -6.5t30 -18t20 -27t7.5 -33.5t-7.5 -33.5t-20 -27t-30 -18t-36.5 -6.5q-20 0 -36.5 6.5t-29.5 18t-20 27t-7 33.5z"/><glyph unicode="" horiz-adv-x="2354" d="M592 1638l1636 -1h70v-1343q0 -125 -109.5 -210t-249.5 -85q-225 0 -225 149q0 125 109 210t250 85q99 0 155 -30v1045l-816 -1l-1 -97l-2 -1067q0 -125 -109.5 -210t-249.5 -85q-225 0 -225 149q0 125 109 210t250 85q99 0 155 -30l4 764l-299 -1v181l298 -1v102h-750 v-1162q0 -125 -109.5 -210t-249.5 -85q-225 0 -225 149q0 125 109 210t250 85q99 0 155 -30v1224h70zM906 -75q162 -75 337 -120q173 -41 333 -41q164 0 330 41q170 41 336 120q-135 -135 -307 -204q-174 -70 -360 -70q-187 0 -360 70q-176 69 -309 204zM589 89q0 18 7 33.5 t20 27t29.5 18t36.5 6.5q19 0 36.5 -6.5t30 -18t20 -27t7.5 -33.5t-7.5 -33.5t-20 -27t-30 -18t-36.5 -6.5q-20 0 -36.5 6.5t-29.5 18t-20 27t-7 33.5z"/><glyph unicode="" horiz-adv-x="2803" d="M592 1638l2080 -1v-1h69v-1343q0 -125 -109.5 -210t-249.5 -85q-225 0 -225 149q0 125 109 210t250 85q99 0 155 -30v1046h-647v-1163q0 -125 -109.5 -210t-249.5 -85q-225 0 -225 149q0 125 109 210t250 85q99 0 155 -30v1044h-646v-1162q0 -125 -109.5 -210t-249.5 -85 q-225 0 -225 149q0 125 109 210t250 85q99 0 155 -30v1043l-646 1v-1164q0 -125 -109.5 -210t-249.5 -85q-225 0 -225 149q0 125 109 210t250 85q99 0 155 -30v1224h70zM207 -234q-25 26 -25 62t25.5 62t61.5 26t61.5 -26t25.5 -62t-25.5 -62t-61.5 -26t-62 26zM1642 -232 q-25 26 -25 62t25.5 62t61.5 26t61.5 -26t25.5 -62t-25.5 -62t-61.5 -26t-62 26zM925 -232q-25 26 -25 62t25.5 62t61.5 26t61.5 -26t25.5 -62t-25.5 -62t-61.5 -26t-62 26zM2357 -234q-25 26 -25 62t25.5 62t61.5 26t61.5 -26t25.5 -62t-25.5 -62t-61.5 -26t-62 26z"/><glyph unicode="" horiz-adv-x="2803" d="M592 1638l2080 -1v-1h69v-1343q0 -125 -109.5 -210t-249.5 -85q-225 0 -225 149q0 125 109 210t250 85q99 0 155 -30v1046h-647v-1163q0 -125 -109.5 -210t-249.5 -85q-225 0 -225 149q0 125 109 210t250 85q99 0 155 -30v1044h-646v-1162q0 -125 -109.5 -210t-249.5 -85 q-225 0 -225 149q0 125 109 210t250 85q99 0 155 -30v1043l-646 1v-1164q0 -125 -109.5 -210t-249.5 -85q-225 0 -225 149q0 125 109 210t250 85q99 0 155 -30v1224h70zM87 -57q139 -75 290 -120q148 -41 286 -41q141 0 284 41q146 41 289 120q-116 -135 -264 -204 q-150 -70 -310 -70q-161 0 -309 70q-152 69 -266 204zM2357 -234q-25 26 -25 62t25.5 62t61.5 26t61.5 -26t25.5 -62t-25.5 -62t-61.5 -26t-62 26zM1642 -232q-25 26 -25 62t25.5 62t61.5 26t61.5 -26t25.5 -62t-25.5 -62t-61.5 -26t-62 26z"/><glyph unicode="" horiz-adv-x="2800" d="M592 1638l2080 -1v-1h69v-1343q0 -125 -109.5 -210t-249.5 -85q-225 0 -225 149q0 125 109 210t250 85q99 0 155 -30v1046h-647v-1163q0 -125 -109.5 -210t-249.5 -85q-225 0 -225 149q0 125 109 210t250 85q99 0 155 -30v1044h-646v-1162q0 -125 -109.5 -210t-249.5 -85 q-225 0 -225 149q0 125 109 210t250 85q99 0 155 -30v1043l-646 1v-1164q0 -125 -109.5 -210t-249.5 -85q-225 0 -225 149q0 125 109 210t250 85q99 0 155 -30v1224h70zM1522 -54q139 -75 290 -120q148 -41 286 -41q141 0 284 41q146 41 289 120q-116 -135 -264 -204 q-150 -70 -310 -70q-161 0 -309 70q-152 69 -266 204zM925 -232q-25 26 -25 62t25.5 62t61.5 26t61.5 -26t25.5 -62t-25.5 -62t-61.5 -26t-62 26zM207 -234q-25 26 -25 62t25.5 62t61.5 26t61.5 -26t25.5 -62t-25.5 -62t-61.5 -26t-62 26z"/><glyph unicode="" horiz-adv-x="2803" d="M522 1638h70l2080 -1v-1h69l-2 -1134q0 -125 -109.5 -210t-249.5 -85q-225 0 -225 149q0 125 109 210t250 85q99 0 155 -30l1 837h-646l-2 -954q0 -125 -109.5 -210t-249.5 -85q-225 0 -225 149q0 125 109 210t250 85q99 0 155 -30l2 835h-646l-2 -953 q0 -125 -109.5 -210t-249.5 -85q-225 0 -225 149q0 125 109 210t250 85q99 0 155 -30l2 834l-647 1l-1 -955q0 -125 -109.5 -210t-249.5 -85q-225 0 -225 149q0 125 109 210t250 85q99 0 155 -30zM85 -71q314 -85 653 -136q334 -47 645 -47q317 0 639 47q329 46 651 136 q-262 -153 -595 -231q-338 -79 -697 -79q-362 0 -697 79q-342 78 -599 231zM1640 -23q-25 26 -25 62t25.5 62t61.5 26t61.5 -26t25.5 -62t-25.5 -62t-61.5 -26t-62 26zM2355 -25q-25 26 -25 62t25.5 62t61.5 26t61.5 -26t25.5 -62t-25.5 -62t-61.5 -26t-62 26zM923 -23 q-25 26 -25 62t25.5 62t61.5 26t61.5 -26t25.5 -62t-25.5 -62t-61.5 -26t-62 26zM205 -25q-25 26 -25 62t25.5 62t61.5 26t61.5 -26t25.5 -62t-25.5 -62t-61.5 -26t-62 26z"/><glyph unicode="" horiz-adv-x="2800" d="M592 1638l2080 -1v-1h69v-1343q0 -125 -109.5 -210t-249.5 -85q-225 0 -225 149q0 125 109 210t250 85q99 0 155 -30v767h-648l1 -884q0 -125 -109.5 -210t-249.5 -85q-225 0 -225 149q0 125 109 210t250 85q99 0 155 -30l-1 765h-646l1 -883q0 -125 -109.5 -210 t-249.5 -85q-225 0 -225 149q0 125 109 210t250 85q99 0 155 -30l-1 764h-645v-884q0 -125 -109.5 -210t-249.5 -85q-225 0 -225 149q0 125 109 210t250 85q99 0 155 -30v1224h70zM2023 1359l648 -1v100h-648v-99zM592 1360l647 -1v99l-647 1v-99zM1309 1359h644v99h-644 v-99zM925 -232q-25 26 -25 62t25.5 62t61.5 26t61.5 -26t25.5 -62t-25.5 -62t-61.5 -26t-62 26zM1642 -232q-25 26 -25 62t25.5 62t61.5 26t61.5 -26t25.5 -62t-25.5 -62t-61.5 -26t-62 26zM207 -234q-25 26 -25 62t25.5 62t61.5 26t61.5 -26t25.5 -62t-25.5 -62t-61.5 -26 t-62 26zM2357 -234q-25 26 -25 62t25.5 62t61.5 26t61.5 -26t25.5 -62t-25.5 -62t-61.5 -26t-62 26z"/><glyph unicode="" horiz-adv-x="2803" d="M592 1638l2080 -1v-1h69v-1343q0 -125 -109.5 -210t-249.5 -85q-225 0 -225 149q0 125 109 210t250 85q99 0 155 -30v767h-647v-884q0 -125 -109.5 -210t-249.5 -85q-225 0 -225 149q0 125 109 210t250 85q99 0 155 -30l2 765h-647l-1 -883q0 -125 -109.5 -210 t-249.5 -85q-225 0 -225 149q0 125 109 210t250 85q99 0 155 -30l1 764h-647v-884q0 -125 -109.5 -210t-249.5 -85q-225 0 -225 149q0 125 109 210t250 85q99 0 155 -30v1224h70zM87 -57q139 -75 290 -120q148 -41 286 -41q141 0 284 41q146 41 289 120q-116 -135 -264 -204 q-150 -70 -310 -70q-161 0 -309 70q-152 69 -266 204zM2023 1359l648 -1v100h-648v-99zM592 1360l647 -1v99l-647 1v-99zM1953 1359v99h-644v-99h644zM1642 -232q-25 26 -25 62t25.5 62t61.5 26t61.5 -26t25.5 -62t-25.5 -62t-61.5 -26t-62 26zM2357 -234q-25 26 -25 62 t25.5 62t61.5 26t61.5 -26t25.5 -62t-25.5 -62t-61.5 -26t-62 26z"/><glyph unicode="" horiz-adv-x="2800" d="M592 1638l2080 -1v-1h69v-1343q0 -125 -109.5 -210t-249.5 -85q-225 0 -225 149q0 125 109 210t250 85q99 0 155 -30v767h-648l1 -884q0 -125 -109.5 -210t-249.5 -85q-225 0 -225 149q0 125 109 210t250 85q99 0 155 -30l-1 765h-646l1 -883q0 -125 -109.5 -210 t-249.5 -85q-225 0 -225 149q0 125 109 210t250 85q99 0 155 -30l-1 764h-645v-884q0 -125 -109.5 -210t-249.5 -85q-225 0 -225 149q0 125 109 210t250 85q99 0 155 -30v1224h70zM1522 -54q139 -75 290 -120q148 -41 286 -41q141 0 284 41q146 41 289 120 q-116 -135 -264 -204q-150 -70 -310 -70q-161 0 -309 70q-152 69 -266 204zM2023 1359l648 -1v100h-648v-99zM592 1360l647 -1v99l-647 1v-99zM1309 1359h644v99h-644v-99zM207 -234q-25 26 -25 62t25.5 62t61.5 26t61.5 -26t25.5 -62t-25.5 -62t-61.5 -26t-62 26zM925 -232 q-25 26 -25 62t25.5 62t61.5 26t61.5 -26t25.5 -62t-25.5 -62t-61.5 -26t-62 26z"/><glyph unicode="" horiz-adv-x="2803" d="M522 1638h70l2080 -1v-1h69l-2 -1134q0 -125 -109.5 -210t-249.5 -85q-225 0 -225 149q0 125 109 210t250 85q99 0 155 -30l1 558h-647l-1 -675q0 -125 -109.5 -210t-249.5 -85q-225 0 -225 149q0 125 109 210t250 85q99 0 155 -30l1 556h-646l-1 -674 q0 -125 -109.5 -210t-249.5 -85q-225 0 -225 149q0 125 109 210t250 85q99 0 155 -30l1 555h-646l-1 -675q0 -125 -109.5 -210t-249.5 -85q-225 0 -225 149q0 125 109 210t250 85q99 0 155 -30zM85 -71q314 -85 653 -136q334 -47 645 -47q317 0 639 47q329 46 651 136 q-262 -153 -595 -231q-338 -79 -697 -79q-362 0 -697 79q-342 78 -599 231zM2023 1359l647 -1v100h-647v-99zM1239 1359v99l-648 1v-99zM1309 1359h644v99h-644v-99zM2355 -25q-25 26 -25 62t25.5 62t61.5 26t61.5 -26t25.5 -62t-25.5 -62t-61.5 -26t-62 26zM923 -23 q-25 26 -25 62t25.5 62t61.5 26t61.5 -26t25.5 -62t-25.5 -62t-61.5 -26t-62 26zM205 -25q-25 26 -25 62t25.5 62t61.5 26t61.5 -26t25.5 -62t-25.5 -62t-61.5 -26t-62 26zM1640 -23q-25 26 -25 62t25.5 62t61.5 26t61.5 -26t25.5 -62t-25.5 -62t-61.5 -26t-62 26z"/><glyph unicode="" horiz-adv-x="2752" d="M979 852l-1 2v129h-1v71h-510v-838q0 -90 -86 -151t-197 -61q-177 0 -177 107q0 90 86 151.5t197 61.5q78 0 122 -22v881h2313v-967q0 -90 -86.5 -151t-196.5 -61q-177 0 -177 107q0 90 85.5 151.5t197.5 61.5q78 0 122 -22v556l-509 -2l-1 -638q0 -90 -86.5 -151.5 t-196.5 -61.5q-177 0 -177 108q0 90 85.5 151t197.5 61q78 0 122 -22l2 553l-509 -1l-2 -639q0 -90 -86.5 -151t-196.5 -61q-178 0 -178 107q0 90 86 151.5t197 61.5q78 0 122 -22l3 553l-509 -1l-3 -637q0 -90 -86 -151t-196 -61q-178 0 -178 107q0 90 86 151t197 61 q78 0 122 -21zM697 -55q234 -81 488 -130q251 -44 482 -44q238 0 478 44q246 45 487 130q-196 -147 -445 -221q-252 -76 -521 -76q-270 0 -521 76q-256 74 -448 221zM1592 984h512v70h-512v-70zM2159 1054v-70l511 1v70zM1032 984h505v70h-505v-70z"/><glyph unicode="" horiz-adv-x="2752" d="M412 1183h2313v-967q0 -90 -86.5 -151t-196.5 -61q-177 0 -177 107q0 90 85.5 151.5t197.5 61.5q78 0 122 -22v556l-509 -2l-1 -638q0 -90 -86.5 -151.5t-196.5 -61.5q-177 0 -177 108q0 90 85.5 151t197.5 61q78 0 122 -22l2 553l-509 -1l-2 -639q0 -90 -86.5 -151 t-196.5 -61q-178 0 -178 107q0 90 86 151.5t197 61.5q78 0 122 -22l3 553l-509 -1l-3 -637q0 -90 -86 -151t-196 -61q-178 0 -178 107q0 90 86 151t197 61q78 0 122 -21l3 551h-1v129h-1v71h-510v-838q0 -90 -86 -151t-197 -61q-177 0 -177 107q0 90 86 151.5t197 61.5 q78 0 122 -22v881zM682 -93q100 -51 209 -82q107 -28 206 -28q101 0 204 28q105 28 209 82q-84 -92 -191 -140q-108 -48 -223 -48q-116 0 -223 48q-109 48 -191 140zM1799 -99q100 -51 209 -82q107 -28 206 -28q101 0 204 28q105 28 209 82q-84 -92 -191 -140 q-108 -48 -223 -48q-116 0 -223 48q-109 48 -191 140zM1592 984h512v70h-512v-70zM2159 1054v-70l511 1v70zM1032 984h505v70h-505v-70z"/><glyph unicode="" horiz-adv-x="2803" d="M977 657h1v326h-1v71h-510v-838q0 -90 -86 -151t-197 -61q-177 0 -177 107q0 90 86 151.5t197 61.5q78 0 122 -22v881h2313v-967q0 -90 -86.5 -151t-196.5 -61q-177 0 -177 107q0 90 85.5 151.5t197.5 61.5q78 0 122 -22v354l-511 -1l1 -437q0 -90 -86.5 -151.5 t-196.5 -61.5q-177 0 -177 108q0 90 85.5 151t197.5 61q78 0 122 -22v352l-509 -1v-438q0 -90 -86.5 -151t-196.5 -61q-178 0 -178 107q0 90 86 151.5t197 61.5q78 0 122 -22l1 352l-509 -1l-1 -436q0 -90 -86 -151t-196 -61q-178 0 -178 107q0 90 86 151t197 61 q78 0 122 -21zM697 -55q234 -81 488 -130q251 -44 482 -44q238 0 478 44q246 45 487 130q-196 -147 -445 -221q-252 -76 -521 -76q-270 0 -521 76q-256 74 -448 221zM2160 856v-72h510v74zM1593 784h512v72l-512 -1v-71zM1592 984h512v70h-512v-70zM2159 1054v-70l511 1v70z M1538 784v71l-505 -1v-70h505zM1032 984h505v70h-505v-70z"/><glyph unicode="" horiz-adv-x="2800" d="M1509 65q-86 -61 -196 -61q-178 0 -178 107q0 90 86 151.5t197 61.5q78 0 122 -22l1 352l-509 -1l-1 -436q0 -90 -86 -151t-196 -61q-178 0 -178 107q0 90 86 151t197 61q78 0 122 -21l1 350l-510 -1v-436q0 -90 -86 -151t-197 -61q-177 0 -177 107q0 90 86 151.5 t197 61.5q78 0 122 -22v881h2313v-967q0 -90 -86.5 -151t-196.5 -61q-177 0 -177 107q0 90 85.5 151.5t197.5 61.5q78 0 122 -22v753l-511 -1v-70h1v-329h-1l1 -437q0 -90 -86.5 -151.5t-196.5 -61.5q-177 0 -177 108q0 90 85.5 151t197.5 61q78 0 122 -22v352l-509 -1v-438 q0 -90 -87 -151zM111 -58q234 -81 488 -130q251 -44 482 -44q238 0 478 44q246 45 487 130q-196 -147 -445 -221q-252 -76 -521 -76q-270 0 -521 76q-256 74 -448 221zM2105 783v74l-512 -2v-73zM978 782v72l-511 -1v-71h511zM1538 855l-505 -1v-72h505v73zM977 983v71h-510 v-71h510zM1592 983l512 1v70h-512v-71zM1032 983h505v71h-505v-71z"/><glyph unicode="" horiz-adv-x="2602" d="M319 936h2225v-765q0 -72 -66.5 -120t-151.5 -48q-137 0 -137 84q0 72 66 120.5t153 48.5q60 0 94 -17v417l-395 -1l1 -483q0 -71 -67 -120t-152 -49q-137 0 -137 86q0 71 66 119.5t153 48.5q60 0 94 -18l1 416h-395v-483q0 -71 -67 -120t-152 -49q-137 0 -137 86 q0 71 66 119.5t153 48.5q61 0 94 -18l1 416h-394l-1 -485q0 -72 -66.5 -120t-152.5 -48q-137 0 -137 85q0 71 66 119.5t153 48.5q60 0 94 -17l1 417l-393 -1l-2 -483q0 -72 -66 -120t-152 -48q-137 0 -137 84q0 72 66 120t153 48q60 0 94 -16l1 415h-395v-484 q0 -72 -66 -120t-152 -48q-137 0 -137 85q0 71 66.5 119.5t152.5 48.5q60 0 94 -17v698zM2107 834v-77h395v78zM1237 757h395v77h-395v-77zM361 757h398v76h-398v-76zM1674 757h391v77h-391v-77zM801 757h394v77l-394 -1v-76zM70 -86q71 -41 148 -65q76 -23 145 -23 q73 0 145 23q74 22 148 65q-61 -74 -136 -111q-75 -38 -157 -38t-158 38q-77 37 -135 111zM949 -91q71 -41 148 -65q76 -23 145 -23q73 0 145 23q74 22 148 65q-61 -74 -136 -111q-75 -38 -157 -38t-158 38q-77 37 -135 111zM1819 -88q71 -41 148 -65q76 -23 145 -23 q73 0 145 23q74 22 148 65q-61 -74 -136 -111q-75 -38 -157 -38t-158 38q-77 37 -135 111z"/><glyph unicode="" horiz-adv-x="2599" d="M319 936h2225v-765q0 -72 -66.5 -120t-151.5 -48q-137 0 -137 84q0 72 66 120.5t153 48.5q60 0 94 -17v417l-395 -1l1 -483q0 -71 -67 -120t-152 -49q-137 0 -137 86q0 71 66 119.5t153 48.5q60 0 94 -18l1 416h-395v-483q0 -71 -67 -120t-152 -49q-137 0 -137 86 q0 71 66 119.5t153 48.5q61 0 94 -18l1 416h-394l-1 -485q0 -72 -66.5 -120t-152.5 -48q-137 0 -137 85q0 71 66 119.5t153 48.5q60 0 94 -17l1 417l-393 -1l-2 -483q0 -72 -66 -120t-152 -48q-137 0 -137 84q0 72 66 120t153 48q60 0 94 -16l1 415h-395v-484 q0 -72 -66 -120t-152 -48q-137 0 -137 85q0 71 66.5 119.5t152.5 48.5q60 0 94 -17v698zM2502 835l-395 -1v-77h395v78zM1237 757h395v77h-395v-77zM361 757h398v76h-398v-76zM801 757h394v77l-394 -1v-76zM1674 757h391v77h-391v-77zM70 -86q71 -41 148 -65q76 -23 145 -23 q73 0 145 23q74 22 148 65q-61 -74 -136 -111q-75 -38 -157 -38t-158 38q-77 37 -135 111zM2313 -155q-16 15 -16 36.5t16 37t38 15.5t37.5 -15.5t15.5 -37t-15.5 -37t-37.5 -15.5t-38 16zM1002 -156q-16 15 -16 36.5t16 37t38 15.5t37.5 -15.5t15.5 -37t-15.5 -37 t-37.5 -15.5t-38 16zM1876 -155q-14 15 -14 36.5t15 36.5t36 15t36.5 -15t15.5 -36.5t-15.5 -37t-36.5 -15.5t-37 16zM1441 -155q-14 15 -14 36.5t15 36.5t36 15t36.5 -15t15.5 -36.5t-15.5 -37t-36.5 -15.5t-37 16z"/><glyph unicode="" horiz-adv-x="2602" d="M319 936h2225v-765q0 -72 -66.5 -120t-151.5 -48q-137 0 -137 84q0 72 66 120.5t153 48.5q60 0 94 -17v417l-395 -1l1 -483q0 -71 -67 -120t-152 -49q-137 0 -137 86q0 71 66 119.5t153 48.5q60 0 94 -18l1 416h-395v-483q0 -71 -67 -120t-152 -49q-137 0 -137 86 q0 71 66 119.5t153 48.5q61 0 94 -18l1 416h-394l-1 -485q0 -72 -66.5 -120t-152.5 -48q-137 0 -137 85q0 71 66 119.5t153 48.5q60 0 94 -17l1 417l-393 -1l-2 -483q0 -72 -66 -120t-152 -48q-137 0 -137 84q0 72 66 120t153 48q60 0 94 -16l1 415h-395v-484 q0 -72 -66 -120t-152 -48q-137 0 -137 85q0 71 66.5 119.5t152.5 48.5q60 0 94 -17v698zM2502 835l-395 -1v-77h395v78zM1237 757h395v77h-395v-77zM361 757h398v76h-398v-76zM801 757h394v77l-394 -1v-76zM1674 757h391v77h-391v-77zM949 -91q71 -41 148 -65 q76 -23 145 -23q73 0 145 23q74 22 148 65q-61 -74 -136 -111q-75 -38 -157 -38t-158 38q-77 37 -135 111zM2313 -155q-16 15 -16 36.5t16 37t38 15.5t37.5 -15.5t15.5 -37t-15.5 -37t-37.5 -15.5t-38 16zM565 -156q-14 15 -14 36.5t15 36.5t36 15t36.5 -15t15.5 -36.5 t-15.5 -37t-36.5 -15.5t-37 16zM1876 -155q-14 15 -14 36.5t15 36.5t36 15t36.5 -15t15.5 -36.5t-15.5 -37t-36.5 -15.5t-37 16zM130 -156q-14 15 -14 36.5t15 36.5t36 15t36.5 -15t15.5 -36.5t-15.5 -37t-36.5 -15.5t-37 16z"/><glyph unicode="" horiz-adv-x="804" d="M566 366q-61 0 -129 -33.5t-116.5 -78.5t-81 -88.5t-32.5 -64.5t20.5 -33t44.5 -12q61 0 129 33.5t116.5 78.5t81 88.5t32.5 64.5t-20.5 33t-44.5 12zM197 -1205h-70v1343q0 125 109.5 210t249.5 85q225 0 225 -149q0 -125 -109 -210t-250 -85q-99 0 -155 30v-1224z"/><glyph unicode="" horiz-adv-x="1000" d="M250 -1200h-70v1343q0 125 109.5 210t249.5 85q225 0 225 -149q0 -125 -109 -210t-250 -85q-99 0 -155 30v-1224z"/><glyph unicode="" horiz-adv-x="804" d="M200 343q12 59 46 102t77.5 79t91 68.5t87.5 71t65.5 87t25.5 115.5q0 48 -3.5 68.5t-5.5 29.5q-2 10 -23 43q-21 35 -47.5 69.5t-58.5 76.5q-11 14 16 27q28 13 40 0q102 -120 130 -183q27 -61 18 -148q0 -68 -21.5 -126t-56.5 -110.5t-79.5 -102t-90.5 -101.5 q-48 -52 -88.5 -106t-74.5 -124q-33 -69 -48 -143h-70v1343q0 125 109.5 210t249.5 85q225 0 225 -149q0 -125 -109 -210t-250 -85q-99 0 -155 30v-917z"/><glyph unicode="" horiz-adv-x="804" d="M210 284q3 8 8 18q5 8 11 17.5t15 19.5q35 40 77 63q43 24 91.5 53t88.5 58q40 28 66 75t26 108q0 59 -11 105q-15 -18 -36 -36.5t-44.5 -36.5t-48 -35t-46.5 -32t-44 -31.5t-44 -33.5q-44 -37 -75 -82q-33 -48 -34 -69q-1 0 -0.5 -25.5t0.5 -55.5v-80zM130 36v1343 q0 125 109.5 210t249.5 85q225 0 225 -149q0 -125 -109 -210t-250 -85q-99 0 -155 30v-630q12 57 57 95t100.5 60.5t109 47.5t90 72.5t36.5 119.5q0 61 -10 105.5t-11 46t-14.5 15t-20.5 19.5q-14 11 13.5 24.5t36.5 11.5q29 -18 50.5 -61t21.5 -178q0 -79 -33 -142 q33 -70 33 -186q0 -65 -22 -122t-58.5 -99.5t-81.5 -81.5t-92 -76.5t-88 -75.5t-73 -86.5t-44 -102.5h-70z"/><glyph unicode="" horiz-adv-x="804" d="M200 36h-70v1343q0 125 109.5 210t249.5 85q225 0 225 -149q0 -125 -109 -210t-250 -85q-99 0 -155 30v-398q9 42 35.5 76t61.5 58t75.5 46.5t79.5 46.5t70.5 52.5t91 74.5t44.5 -63q-2 -65 1 -175q1 -67 -25 -129q25 -66 25 -168q0 -65 -22 -121.5t-58.5 -99 t-81.5 -81.5t-92 -76.5t-88 -75.5t-73 -86.5t-44 -102.5v-2zM244 644q34 39 77 62.5t91.5 51.5t88.5 55.5t66 74t26 106.5q0 51 -7 85q-31 -41 -80.5 -84.5t-95 -79.5t-89.5 -75.5t-76.5 -89t-44.5 -104.5v-88q10 48 44 86zM200 253q9 42 35.5 76t61.5 58t75.5 46.5 t79.5 46.5t70.5 52.5t51 70.5t19.5 95q0 38 -5 73q-37 -48 -103.5 -103.5t-119.5 -95.5t-101.5 -101.5t-63.5 -128.5v-89z"/><glyph unicode="" horiz-adv-x="2104" d="M592 1638h1111h70v-370l232 87v-149l-232 -85v-826q0 -125 -109.5 -210t-249.5 -85q-225 0 -225 149q0 125 109 210t250 85q99 0 155 -30v681l-318 -116v143l318 119v218l-1111 -2v-207l263 99v-149l-263 -97v-808q0 -125 -109.5 -210t-249.5 -85q-225 0 -225 149 q0 125 109 210t250 85q99 0 155 -30v664l-287 -105v143l287 108v414h70z"/><glyph unicode="" horiz-adv-x="2999" d="M1711 1071l243 91v296h-646v-268l304 114v-149l-304 -112v-747q0 -125 -109.5 -210t-249.5 -85q-225 0 -225 149q0 125 109 210t250 85q99 0 155 -30v603l-246 -90v143l246 92v296h-646v-270l296 111v-149l-296 -109v-747q0 -125 -109.5 -210t-249.5 -85q-225 0 -225 149 q0 125 109 210t250 85q99 0 155 -30v603l-254 -93v143l254 95v476h70l2080 -1v-1h69v-451l241 90v-149l-241 -87v-746q0 -125 -109.5 -210t-249.5 -85q-225 0 -225 149q0 125 109 210t250 85q99 0 155 -30v602l-238 -86v143l238 88v299h-647v-269l307 115v-149l-307 -113 v-747q0 -125 -109.5 -210t-249.5 -85q-225 0 -225 149q0 125 109 210t250 85q99 0 155 -30v603l-243 -89v143zM2671 1458h3h-3z"/><glyph unicode="" horiz-adv-x="1822" d="M592 1638h1111v-179l-1111 -2v181z"/><glyph unicode="" horiz-adv-x="1820" d="M592 1638h1111v-179l-1111 -2v181zM592 1364h1111v-179l-1111 -2v181z"/><glyph unicode="" horiz-adv-x="1822" d="M592 1638h1111v-179l-1111 -2v181zM592 1364h1111v-179l-1111 -2v181zM593 1090h1110v-179l-1110 -2v181z"/><glyph unicode="" horiz-adv-x="1822" d="M592 1638h1111v-179l-1111 -2v181zM592 1364h1111v-179l-1111 -2v181zM593 1090h1110v-179l-1110 -2v181zM593 816h1110v-179l-1110 -2v181z"/><glyph unicode="" horiz-adv-x="1835" d="M235 -68q162 -75 337 -120q173 -41 333 -41q164 0 330 41q170 41 336 120q-135 -135 -307 -204q-174 -70 -360 -70q-187 0 -360 70q-176 69 -309 204z"/><glyph unicode="" horiz-adv-x="2771" d="M85 -71q314 -85 653 -136q334 -47 645 -47q317 0 639 47q329 46 651 136q-262 -153 -595 -231q-338 -79 -697 -79q-362 0 -697 79q-342 78 -599 231z"/><glyph unicode="" horiz-adv-x="1240" d="M660 -40v855h70v-372l310 41v-855h-70v372zM730 302v-187l240 27v187zM200 -40v855h70v-372l310 41v-855h-70v372zM270 302v-187l240 27v187z"/><glyph unicode="" horiz-adv-x="1240" d="M660 -40v1033h70v-629q37 28 55.5 40t50.5 21.5t74 9.5q66 0 98 -46t32 -113q0 -73 -80.5 -150t-229.5 -166h-70zM730 289v-256q42 30 70.5 55t55.5 57t40.5 67.5t13.5 74.5q0 68 -50 68q-26 0 -43 -6t-36 -21t-51 -39zM200 -40v855h70v-372l310 41v-855h-70v372z M270 302v-187l240 27v187z"/><glyph unicode="" horiz-adv-x="1240" d="M800 -22v-358h-70v349l-70 -9v140l70 9v194l-70 -9v140l70 9v319h70v-310l100 14v358h70v-349l70 9v-140l-70 -9v-194l70 9v-140l-70 -9v-319h-70v310zM800 118l100 14v194l-100 -14v-194zM200 -40v855h70v-372l310 41v-855h-70v372zM270 302v-187l240 27v187z"/><glyph unicode="" horiz-adv-x="780" d="M340 -22v-358h-70v349l-70 -9v140l70 9v194l-70 -9v140l70 9v319h70v-310l80 11v-140l-80 -11v-194l80 11v-140z"/><glyph unicode="" horiz-adv-x="950" d="M340 -22v-358h-70v349l-70 -9v140l70 9v194l-70 -9v140l70 9v319h70v-310l100 14v338h70v-329l100 13v358h70v-349l70 9v-140l-70 -9v-194l70 9v-140l-70 -9v-319h-70v310l-100 -13v-339h-70v330zM610 348l-100 -13v-194l100 13v194zM440 326l-100 -14v-194l100 14v194z "/><glyph unicode="" horiz-adv-x="780" d="M580 -40h-70q-149 89 -229.5 166t-80.5 150q0 67 32 113t98 46q42 0 74 -9.5t50.5 -21.5t55.5 -40v629h70v-1033zM510 289q-32 24 -51 39t-36 21t-43 6q-50 0 -50 -68q0 -39 13.5 -74.5t40.5 -67.5t55.5 -57t70.5 -55v256z"/><glyph unicode="" horiz-adv-x="1230" d="M650 -40v1033h70v-629q37 28 55.5 40t50.5 21.5t74 9.5q66 0 98 -46t32 -113q0 -73 -80.5 -150t-229.5 -166h-70zM720 289v-256q42 30 70.5 55t55.5 57t40.5 67.5t13.5 74.5q0 68 -50 68q-26 0 -43 -6t-36 -21t-51 -39zM580 -40h-70q-149 89 -229.5 166t-80.5 150 q0 67 32 113t98 46q42 0 74 -9.5t50.5 -21.5t55.5 -40v629h70v-1033zM510 289q-32 24 -51 39t-36 21t-43 6q-50 0 -50 -68q0 -39 13.5 -74.5t40.5 -67.5t55.5 -57t70.5 -55v256z"/><glyph unicode="" horiz-adv-x="840" d="M200 1668h440v-80h-440v80zM380 1605h80v-437h-80v437zM320 470h150q53 0 94 -43t41 -99q0 -73 -45 -96q70 -36 70 -114q0 -66 -33 -107t-104 -41h-173h-80v500h80zM320 390v-124h145q30 0 42.5 15t12.5 47q0 26 -15.5 44t-39.5 18h-145zM320 186v-136h166q59 0 59 68 t-59 68h-166zM640 569h-90l-40 115h-179l-40 -115h-91l180 500h80zM359 764h123l-62 177z"/><glyph unicode="" horiz-adv-x="2270" d="M1776 730l-50 -250q-7 -38 -7 -68q0 -79 53 -79q20 0 42 10.5t47.5 34t48 73t36.5 117.5q20 105 20 162q0 110 -72 110q-16 0 -31 -4t-33 -14.5t-32.5 -34t-21.5 -57.5zM2126 681q0 -38 -6 -79.5t-19 -90t-37 -91t-56.5 -78t-81.5 -56.5t-108 -21q-74 0 -124 54l-52 -256 h125v-63h-406v63h130l141 705q7 37 -14 37q-14 0 -42.5 -36.5t-59.5 -104.5q-1 -40 -8 -80.5t-21 -87t-38.5 -86.5t-56.5 -73.5t-80 -52.5t-104 -19q-74 0 -124 54l-52 -256h125v-63h-406v63h130l141 705q7 37 -14 37q-17 0 -54 -53t-74 -152q-7 -47 -20 -91t-37 -89.5 t-56.5 -79t-81.5 -54.5t-108 -21q-73 0 -124 54l-51 -256h124v-63h-406v63h130l142 705q7 37 -14 37q-19 0 -59 -59.5t-79 -171.5l-56 24q27 68 53.5 124.5t53 97t69.5 63t103 22.5q70 0 77 -65q51 38 87 51.5t98 13.5q67 0 105.5 -42t50.5 -113q38 79 85 117t128 38 q70 0 76 -65q51 38 87.5 51.5t98.5 13.5q116 0 149 -127q35 64 80 95.5t119 31.5q70 0 76 -65q51 38 87.5 51.5t98.5 13.5q42 0 74 -18t50.5 -49.5t27 -70.5t8.5 -86zM1166 730l-50 -250q-7 -38 -7 -68q0 -79 53 -79q20 0 42 10.5t47.5 34t48 73t36.5 117.5q20 105 20 162 q0 110 -72 110q-16 0 -31 -4t-33 -14.5t-32.5 -34t-21.5 -57.5zM536 730l-50 -250q-8 -38 -8 -68q0 -79 54 -79q46 0 97 53.5t76 181.5q20 105 20 162q0 110 -71 110q-16 0 -31.5 -4t-33.5 -14.5t-32 -34t-21 -57.5z"/><glyph unicode="" horiz-adv-x="1660" d="M536 730l-50 -250q-8 -38 -8 -68q0 -79 54 -79q46 0 97 53.5t76 181.5q20 105 20 162q0 110 -71 110q-16 0 -31.5 -4t-33.5 -14.5t-32 -34t-21 -57.5zM1166 730l-50 -250q-7 -38 -7 -68q0 -79 53 -79q20 0 42 10.5t47.5 34t48 73t36.5 117.5q20 105 20 162q0 110 -72 110 q-16 0 -31 -4t-33 -14.5t-32.5 -34t-21.5 -57.5zM1516 681q0 -38 -6 -79.5t-19 -90t-37 -91t-56.5 -78t-81.5 -56.5t-108 -21q-74 0 -124 54l-52 -256h125v-63h-406v63h130l141 705q7 37 -14 37q-17 0 -54 -53t-74 -152q-7 -47 -20 -91t-37 -89.5t-56.5 -79t-81.5 -54.5 t-108 -21q-73 0 -124 54l-51 -256h124v-63h-406v63h130l142 705q7 37 -14 37q-19 0 -59 -59.5t-79 -171.5l-56 24q27 68 53.5 124.5t53 97t69.5 63t103 22.5q70 0 77 -65q51 38 87 51.5t98 13.5q67 0 105.5 -42t50.5 -113q38 79 85 117t128 38q70 0 76 -65q51 38 87.5 51.5 t98.5 13.5q42 0 74 -18t50.5 -49.5t27 -70.5t8.5 -86z"/><glyph unicode="" horiz-adv-x="2030" d="M960 265q-54 0 -73 35t-10 82l84 418q4 23 -4 31.5t-35 8.5q-16 0 -32.5 -4t-35.5 -14.5t-34 -34t-22 -57.5l-92 -455h-151l106 525q4 23 -4 31.5t-35 8.5q-16 0 -32.5 -4t-35.5 -14.5t-34 -34t-22 -57.5l-92 -455h-151l99 493q7 37 -14 37q-19 0 -59 -59.5t-79 -171.5 l-56 24q27 68 53.5 124.5t53 97t69.5 63t103 22.5q70 0 77 -65q86 65 216 65q65 0 84 -65q24 18 40 30.5t36 20t52 11t88 3.5q43 0 71.5 -38.5t15.5 -101.5l-74 -363q-7 -37 14 -37q21 1 60.5 60.5t77.5 170.5l56 -24q-27 -68 -53.5 -124.5t-53 -97t-69.5 -63t-103 -22.5z M1887 681q0 -38 -6 -79.5t-19 -90t-37 -91t-56.5 -78t-82 -56.5t-108.5 -21q-73 0 -124 54l-52 -256h126v-63h-406v63h129l142 705q7 37 -14 37q-31 0 -96 -128l-56 24q7 11 23 46t30.5 56.5t38.5 48t61 40t84 13.5q70 0 77 -65q51 38 87 51.5t98 13.5q43 0 74.5 -18 t50 -49.5t27.5 -70.5t9 -86zM1537 730l-50 -250q-8 -38 -8 -68q0 -79 53 -79q47 0 98 53.5t76 181.5q20 105 20 162q0 110 -71 110q-16 0 -31.5 -4t-33.5 -14.5t-32 -34t-21 -57.5z"/><glyph unicode="" horiz-adv-x="1938" d="M1700 1240q-34 0 -60 -26t-45 -76.5t-32.5 -106t-26.5 -135.5h149v-63h-159q-28 -178 -30 -186q-53 -314 -159 -488t-223 -174q-86 0 -119 25.5t-33 87.5q0 59 30 97.5t68 38.5q35 0 59.5 -17.5t24.5 -48.5q0 -29 -12.5 -47.5t-30.5 -18.5q-22 0 -30.5 -8t-8.5 -23 q0 -16 52 -16q45 0 79 53t53 138.5t36.5 194t31.5 218.5q13 87 36 174h-133v63h151q38 117 87.5 208t113.5 148.5t131 57.5q62 0 107 -28.5t45 -85.5q0 -58 -30.5 -96.5t-69.5 -38.5q-34 0 -58.5 17.5t-24.5 48.5q0 28 12.5 47t30.5 19q22 0 30 8t8 23q0 7 -16 11.5t-34 4.5 zM960 265q-54 0 -73 35t-10 82l84 418q4 23 -4 31.5t-35 8.5q-16 0 -32.5 -4t-35.5 -14.5t-34 -34t-22 -57.5l-92 -455h-151l106 525q4 23 -4 31.5t-35 8.5q-16 0 -32.5 -4t-35.5 -14.5t-34 -34t-22 -57.5l-92 -455h-151l99 493q7 37 -14 37q-19 0 -59 -59.5t-79 -171.5 l-56 24q27 68 53.5 124.5t53 97t69.5 63t103 22.5q70 0 77 -65q86 65 216 65q65 0 84 -65q24 18 40 30.5t36 20t52 11t88 3.5q43 0 71.5 -38.5t15.5 -101.5l-74 -363q-7 -37 14 -37q21 1 60.5 60.5t77.5 170.5l56 -24q-27 -68 -53.5 -124.5t-53 -97t-69.5 -63t-103 -22.5z "/><glyph unicode="" horiz-adv-x="1586" d="M703 833q-28 -177 -29 -186q-53 -314 -159.5 -488t-223.5 -174q-85 0 -118.5 25.5t-33.5 87.5q0 59 30 97.5t69 38.5q34 0 59 -17.5t25 -48.5q0 -29 -12.5 -47.5t-31.5 -18.5q-21 0 -29.5 -8t-8.5 -23q0 -16 51 -16q46 0 79.5 53t52.5 138.5t37 194t32 218.5 q12 87 36 174h-134v63h152q37 117 86.5 208t114 148.5t130.5 57.5q63 0 107.5 -28.5t44.5 -85.5q0 -58 -30 -96.5t-69 -38.5q-34 0 -59 17.5t-25 48.5q0 28 12.5 47t31.5 19q38 0 38 31q0 7 -16.5 11.5t-34.5 4.5q-33 0 -59 -26t-45.5 -76.5t-32.5 -106t-27 -135.5h303 q38 117 87.5 208t113.5 148.5t131 57.5q62 0 107 -28.5t45 -85.5q0 -58 -30.5 -96.5t-69.5 -38.5q-34 0 -58.5 17.5t-24.5 48.5q0 28 12.5 47t30.5 19q22 0 30 8t8 23q0 7 -16 11.5t-34 4.5q-34 0 -60 -26t-45 -76.5t-32.5 -106t-26.5 -135.5h149v-63h-159 q-28 -178 -30 -186q-53 -314 -159 -488t-223 -174q-86 0 -119 25.5t-33 87.5q0 59 30 97.5t68 38.5q35 0 59.5 -17.5t24.5 -48.5q0 -29 -12.5 -47.5t-30.5 -18.5q-22 0 -30.5 -8t-8.5 -23q0 -16 52 -16q45 0 79 53t53 138.5t36.5 194t31.5 218.5q13 87 36 174h-295z"/><glyph unicode="" horiz-adv-x="2056" d="M1644 833q-28 -178 -29 -186q-53 -314 -159.5 -488t-223.5 -174q-85 0 -118.5 25.5t-33.5 87.5q0 59 30 97.5t69 38.5q34 0 58.5 -17.5t24.5 -48.5q0 -29 -12 -47.5t-30 -18.5q-22 0 -30.5 -8t-8.5 -23q0 -16 51 -16q46 0 79.5 53t52.5 138.5t37 194t32 218.5 q12 87 36 174h-295q-28 -178 -30 -186q-53 -314 -159 -488t-223 -174q-86 0 -119 25.5t-33 87.5q0 59 30 97.5t68 38.5q35 0 59.5 -17.5t24.5 -48.5q0 -29 -12.5 -47.5t-30.5 -18.5q-22 0 -30.5 -8t-8.5 -23q0 -16 52 -16q45 0 79 53t53 138.5t36.5 194t31.5 218.5 q13 87 36 174h-295q-28 -177 -29 -186q-53 -314 -159.5 -488t-223.5 -174q-85 0 -118.5 25.5t-33.5 87.5q0 59 30 97.5t69 38.5q34 0 59 -17.5t25 -48.5q0 -29 -12.5 -47.5t-31.5 -18.5q-21 0 -29.5 -8t-8.5 -23q0 -16 51 -16q46 0 79.5 53t52.5 138.5t37 194t32 218.5 q12 87 36 174h-134v63h152q37 117 86.5 208t114 148.5t130.5 57.5q63 0 107.5 -28.5t44.5 -85.5q0 -58 -30 -96.5t-69 -38.5q-34 0 -59 17.5t-25 48.5q0 28 12.5 47t31.5 19q38 0 38 31q0 7 -16.5 11.5t-34.5 4.5q-33 0 -59 -26t-45.5 -76.5t-32.5 -106t-27 -135.5h303 q38 117 87.5 208t113.5 148.5t131 57.5q62 0 107 -28.5t45 -85.5q0 -58 -30.5 -96.5t-69.5 -38.5q-34 0 -58.5 17.5t-24.5 48.5q0 28 12.5 47t30.5 19q22 0 30 8t8 23q0 7 -16 11.5t-34 4.5q-34 0 -60 -26t-45 -76.5t-32.5 -106t-26.5 -135.5h303q37 117 86.5 208t114 148.5 t130.5 57.5q63 0 107.5 -28.5t44.5 -85.5q0 -58 -30 -96.5t-69 -38.5q-34 0 -58.5 17.5t-24.5 48.5q0 28 12 47t30 19q39 0 39 31q0 7 -16.5 11.5t-34.5 4.5q-33 0 -59 -26t-45.5 -76.5t-32.5 -106t-27 -135.5h150v-63h-160z"/><glyph unicode="" horiz-adv-x="1504" d="M1266 1240q-33 0 -59 -26t-45 -76.5t-32.5 -106t-26.5 -135.5h149v-63h-159q-28 -178 -30 -186q-53 -314 -159 -488t-224 -174q-85 0 -118.5 25.5t-33.5 87.5q0 59 30.5 97.5t69.5 38.5q34 0 58.5 -17.5t24.5 -48.5q0 -29 -12.5 -47.5t-30.5 -18.5q-22 0 -30 -8t-8 -23 q0 -16 50 -16q46 0 80 53t53 138.5t36.5 194t31.5 218.5q13 87 36 174h-133v63h152q37 117 86.5 208t113.5 148.5t130 57.5q63 0 107.5 -28.5t44.5 -85.5q0 -58 -30 -96.5t-68 -38.5q-35 0 -59.5 17.5t-24.5 48.5q0 28 12.5 47t30.5 19q22 0 30.5 8t8.5 23q0 7 -16.5 11.5 t-35.5 4.5zM569 788q0 17 -17.5 35t-48.5 18q-56 0 -78 -17.5t-22 -66.5q0 -27 19 -51t48 -40.5t62.5 -40t62.5 -47.5t48 -64.5t19 -90.5q0 -83 -79 -123.5t-195 -40.5q-90 0 -147 36t-57 103q0 49 24 74t56 25q27 0 45.5 -17.5t18.5 -39.5q0 -16 -9 -28t-9 -23 q0 -31 29 -48.5t70 -17.5q44 0 73 25.5t29 64.5q0 37 -18.5 64.5t-46.5 43.5t-60 35.5t-60 39.5t-46.5 56t-18.5 84q0 80 65.5 124.5t178.5 44.5q85 0 136 -42.5t51 -102.5q0 -24 -20 -40t-46 -16q-32 0 -48 15.5t-16 36.5q0 7 3.5 16.5t3.5 15.5z"/><glyph unicode="" horiz-adv-x="1608" d="M1240 338q25 0 45.5 13.5t20.5 25.5q0 17 -34 17q-36 0 -58 20.5t-22 51.5q0 37 20 55.5t66 18.5q49 0 72.5 -40t23.5 -100q0 -164 -186 -164q-31 0 -88.5 40.5t-99.5 40.5q-45 0 -73.5 -8.5t-60.5 -33.5h-78v29l426 455h-128q-47 0 -82 -21q-16 -8 -28 -42h-50l40 200 h462v-91l-404 -382q22 3 48 3q30 0 54 -14t36.5 -30t32.5 -30t45 -14zM877 1240q-33 0 -59 -26t-45.5 -76.5t-32.5 -106t-27 -135.5h149v-63h-159q-28 -177 -29 -186q-53 -314 -159.5 -488t-223.5 -174q-85 0 -118.5 25.5t-33.5 87.5q0 59 30 97.5t69 38.5q34 0 59 -17.5 t25 -48.5q0 -29 -12.5 -47.5t-31.5 -18.5q-21 0 -29.5 -8t-8.5 -23q0 -16 51 -16q46 0 79.5 53t52.5 138.5t37 194t32 218.5q12 87 36 174h-134v63h152q37 117 86.5 208t114 148.5t130.5 57.5q63 0 107.5 -28.5t44.5 -85.5q0 -58 -30 -96.5t-69 -38.5q-34 0 -59 17.5 t-25 48.5q0 28 12.5 47t31.5 19q38 0 38 31q0 7 -16.5 11.5t-34.5 4.5z"/><glyph unicode="" horiz-adv-x="1998" d="M1629 338q25 0 46 13.5t21 25.5q0 17 -35 17q-36 0 -58 20.5t-22 51.5q0 37 20 55.5t67 18.5q48 0 71.5 -40t23.5 -100q0 -164 -185 -164q-27 0 -57.5 20t-63.5 40.5t-67 20.5q-45 0 -74 -8.5t-60 -33.5h-78v29l426 455h-128q-47 0 -83 -21q-16 -8 -28 -42h-49l40 200 h462v-91l-405 -382q23 3 48 3q31 0 54.5 -14t36 -30t33 -30t44.5 -14zM1266 1240q-33 0 -59 -26t-45 -76.5t-32.5 -106t-26.5 -135.5h149v-63h-159q-28 -178 -30 -186q-53 -314 -159 -488t-224 -174q-85 0 -118.5 25.5t-33.5 87.5q0 59 30.5 97.5t69.5 38.5q34 0 58.5 -17.5 t24.5 -48.5q0 -29 -12.5 -47.5t-30.5 -18.5q-22 0 -30 -8t-8 -23q0 -16 50 -16q46 0 80 53t53 138.5t36.5 194t31.5 218.5q13 87 36 174h-133v63h152q37 117 86.5 208t113.5 148.5t130 57.5q63 0 107.5 -28.5t44.5 -85.5q0 -58 -30 -96.5t-68 -38.5q-35 0 -59.5 17.5 t-24.5 48.5q0 28 12.5 47t30.5 19q22 0 30.5 8t8.5 23q0 7 -16.5 11.5t-35.5 4.5zM569 788q0 17 -17.5 35t-48.5 18q-56 0 -78 -17.5t-22 -66.5q0 -27 19 -51t48 -40.5t62.5 -40t62.5 -47.5t48 -64.5t19 -90.5q0 -83 -79 -123.5t-195 -40.5q-90 0 -147 36t-57 103 q0 49 24 74t56 25q27 0 45.5 -17.5t18.5 -39.5q0 -16 -9 -28t-9 -23q0 -31 29 -48.5t70 -17.5q44 0 73 25.5t29 64.5q0 37 -18.5 64.5t-46.5 43.5t-60 35.5t-60 39.5t-46.5 56t-18.5 84q0 80 65.5 124.5t178.5 44.5q85 0 136 -42.5t51 -102.5q0 -24 -20 -40t-46 -16 q-32 0 -48 15.5t-16 36.5q0 7 3.5 16.5t3.5 15.5z"/><glyph unicode="" horiz-adv-x="952" d="M480 286v158h158v-138h128v138h158v-158h-138v-128h138v-158h-158v138h-128v-138h-158v158h138v128h-138zM173 -22v-358h-70v349l-70 -9v140l70 9v194l-70 -9v140l70 9v319h70v-310l100 14v358h70v-349l70 9v-140l-70 -9v-194l70 9v-140l-70 -9v-319h-70v310zM173 118 l100 14v194l-100 -14v-194z"/><glyph unicode="" horiz-adv-x="1100" d="M685 -40v176q-5 -5 -11 -10q-80 -77 -229 -166h-70v187q-73 -82 -250 -187h-70v1033h70v-629q37 28 55.5 40t50.5 21.5t74 9.5q41 0 70 -19v577h70v-629q37 28 55.5 40t50.5 21.5t74 9.5q34 0 60 -13v571h70v-629q37 28 55.5 40t50.5 21.5t74 9.5q66 0 98 -46t32 -113 q0 -73 -80.5 -150t-229.5 -166h-70zM445 289v-256q42 30 70.5 55t55.5 57t40.5 67.5t13.5 74.5q0 68 -50 68q-26 0 -43 -6t-36 -21t-51 -39zM755 289v-13v-8v-235q42 30 70.5 55t55.5 57t40.5 67.5t13.5 74.5q0 68 -50 68q-26 0 -43 -6t-36 -21t-51 -39zM125 289v-256 q42 30 70.5 55t55.5 57t40.5 67.5t13.5 74.5q0 68 -50 68q-26 0 -43 -6t-36 -21t-51 -39z"/><glyph unicode="" horiz-adv-x="860" d="M164 -22v-358h-70v349l-70 -9v140l70 9v194l-70 -9v140l70 9v319h70v-310l100 14v358h70v-349l70 9v-140l-70 -9v-194l70 9v-140l-70 -9v-319h-70v310zM164 118l100 14v194l-100 -14v-194zM588 -23v-358h-70v349l-70 -9v140l70 9v194l-70 -9v140l70 9v319h70v-310l100 14 v358h70v-349l70 9v-140l-70 -9v-194l70 9v-140l-70 -9v-319h-70v310zM588 117l100 14v194l-100 -14v-194z"/><glyph unicode="" horiz-adv-x="1819" d="M3 315q10 48 37.5 89t62.5 71.5t75.5 59.5t78.5 59t69.5 63.5t50.5 79.5t19 101q0 48 -8 89.5t-23 75.5t-19.5 46t-36.5 54q-11 14 16.5 27.5t39.5 -0.5q16 -7 56.5 -93.5t40.5 -215.5q0 -65 -21.5 -125.5t-57 -111.5t-79 -100.5t-90.5 -102t-88 -106.5t-74.5 -123.5 t-48.5 -143.5v307z"/><glyph unicode="" horiz-adv-x="1819" d="M6 221q10 48 44 87t77 63t91.5 53t88.5 57.5t66 75.5t26 108t-11 105q-31 -36 -80.5 -73t-94 -67t-88 -65.5t-75.5 -81.5t-44 -100v216q12 57 57 95t100.5 60.5t109 47.5t90 72.5t36.5 119.5q0 61 -10 105.5t-16 27.5q-14 11 13.5 24.5t42.5 2.5q36 -42 36 -177 q0 -79 -33 -142q33 -70 33 -186q0 -65 -22 -122t-58.5 -99.5t-81.5 -81.5t-92 -76.5t-88 -75.5t-73 -86.5t-44 -102.5v216z"/><glyph unicode="" horiz-adv-x="1819" d="M73 252v-35q9 42 35.5 76t61.5 58t75.5 46.5t79.5 46.5t70.5 52.5t51 70.5t19.5 95q0 38 -5 73q-37 -48 -103.5 -103.5t-119.5 -95.5t-101.5 -101.5t-63.5 -128.5v216q10 48 44 86.5t77 62t91.5 51.5t88.5 55.5t66 74t26 106.5q0 51 -7 85q-31 -41 -80.5 -84.5t-95 -79.5 t-89.5 -75.5t-76.5 -89t-44.5 -104.5v216q9 42 35.5 76t61.5 58t75.5 46.5t79.5 46.5t70.5 52.5t51 70.5t19.5 95q0 46 -9.5 80t-16.5 35q-14 11 13.5 24.5t42.5 2.5q36 -55 36 -159q0 -71 -28 -137q25 -65 28 -175q1 -67 -25 -129q25 -66 25 -168q0 -65 -22 -121.5 t-58.5 -99t-81.5 -81.5t-92 -76.5t-88 -75.5t-73 -86.5t-44 -102.5h-70v250h70z"/><glyph unicode="" horiz-adv-x="1819" d="M72 561v-35q9 42 35.5 76t61.5 58t75.5 46.5t79.5 46.5t70.5 52.5t51 70.5t19.5 95q0 38 -5 73q-37 -48 -103.5 -103.5t-119.5 -95.5t-101.5 -101.5t-63.5 -128.5v216q10 48 44 86.5t77 62t91.5 51.5t88.5 55.5t66 74t26 106.5q0 51 -7 85q-31 -41 -80.5 -84.5t-95 -79.5 t-89.5 -75.5t-76.5 -89t-44.5 -104.5v216q9 42 35.5 76t61.5 58t75.5 46.5t79.5 46.5t70.5 52.5t51 70.5t19.5 95q0 46 -9.5 80t-29.5 44q-14 11 13.5 24.5t42.5 2.5q49 -64 49 -168q0 -71 -28 -137q25 -65 28 -175q1 -67 -25 -129q25 -66 25 -168q0 -71 -27 -133 q27 -68 27 -171q0 -65 -22 -121.5t-58.5 -99t-81.5 -81.5t-92 -77t-88 -75.5t-73 -86.5t-44 -103h-70v555h70zM72 222q9 42 35.5 76t61.5 58t75.5 46.5t79.5 46.5t70.5 52.5t51 70.5t19.5 95q0 45 -6 78q-31 -41 -80.5 -85t-95 -79.5t-90 -75.5t-77 -89.5t-44.5 -104.5v-89z "/><glyph unicode="" horiz-adv-x="1819" d="M71 859v-35q9 42 35.5 76t61.5 58t75.5 46.5t79.5 46.5t70.5 52.5t51 70.5t19.5 95q0 38 -5 73q-37 -48 -103.5 -103.5t-119.5 -95.5t-101.5 -101.5t-63.5 -128.5v216q10 48 44 86.5t77 62t91.5 51.5t88.5 55.5t66 74t26 106.5q0 51 -7 85q-31 -41 -80.5 -84.5t-95 -79.5 t-89.5 -75.5t-76.5 -89t-44.5 -104.5v216q9 42 35.5 76t61.5 58t75.5 46.5t79.5 46.5t70.5 52.5t51 70.5t19.5 95q0 46 -9.5 80t-17.5 33q-14 11 13.5 24.5t42.5 2.5q37 -53 37 -157q0 -71 -28 -137q25 -65 28 -175q1 -67 -25 -129q25 -66 25 -168q0 -71 -27 -133 q27 -68 27 -171q0 -71 -27 -133q27 -68 27 -172q0 -65 -22 -121.5t-58.5 -99t-81.5 -81.5t-92 -76.5t-88 -75.5t-73 -86.5t-44 -102.5h-70v859h70zM71 215q9 42 35.5 76t61.5 58t75.5 46.5t79.5 46.5t70.5 52.5t51 70.5t19.5 95q0 45 -6 79q-31 -41 -80.5 -85t-95 -80 t-90 -76t-77 -89.5t-44.5 -104.5v-89zM71 520q9 42 35.5 76t61.5 58t75.5 46.5t79.5 46.5t70.5 52.5t51 70.5t19.5 95q0 45 -6 78q-31 -41 -80.5 -85t-95 -79.5t-90 -75.5t-77 -89.5t-44.5 -104.5v-89z"/><glyph unicode="" horiz-adv-x="1030" d="M803 -10q0 -32 -17 -61.5t-45 -54.5t-62.5 -45t-69.5 -34t-67.5 -21.5t-54.5 -7.5h-77q-27 0 -60.5 7.5t-69 22.5t-69 36t-59.5 48t-42 59t-16 69q0 33 16.5 62.5t44 54t61.5 44t69.5 33t68 20.5t56.5 7h77q40 0 94 -16.5t103.5 -47.5t84 -75.5t34.5 -99.5zM630 -52 q-11 35 -25.5 78.5t-35.5 81.5t-51 63.5t-70 25.5q-20 0 -50.5 -2t-59.5 -11t-50 -28t-21 -54v-52q16 -53 29 -98.5t35 -79.5t60 -53t103 -20q18 0 41.5 5t44.5 16.5t35.5 30t14.5 45.5v52zM247 785q-6 -4 -11.5 7t-9.5 29.5t-6.5 42t-3 45t1.5 37t8 19.5l677 408 q6 4 11.5 -7t10.5 -29.5t8.5 -41.5t4.5 -44t-1 -36.5t-8 -19.5zM247 433q-6 -4 -11.5 7t-9.5 29.5t-6.5 42t-3 45t1.5 37t8 19.5l677 408q6 4 11.5 -7t10.5 -29.5t8.5 -41.5t4.5 -44t-1 -36.5t-8 -19.5z"/><glyph unicode="" horiz-adv-x="1162" d="M376 433q-6 -4 -11.5 7t-9.5 29.5t-6.5 42t-3 45t1.5 37t8 19.5l379 228v592h46v-564l252 152q6 4 11.5 -7t10.5 -29.5t8.5 -41.5t4.5 -44t-1 -36.5t-8 -19.5l-278 -168v-571q1 -46 -33 -96t-93 -92t-137 -69t-165 -27q-45 0 -82 8.5t-63 27t-40.5 47.5t-14.5 71 q0 49 30.5 100t78.5 92.5t107 68t116 26.5q21 0 52 2.5t65.5 -0.5t69 -15t63.5 -40v440zM208 -79q0 -9 10 -19.5t23.5 -19.5t28 -15.5t22.5 -6.5q25 0 66.5 13.5t88 35.5t94 49.5t86 56t62.5 55t24 46.5v44q0 7 -10 17t-23.5 19t-28 15.5t-22.5 6.5q-23 0 -63.5 -13 t-87 -34.5t-94.5 -48.5t-87.5 -55.5t-64 -56t-24.5 -48.5v-41z"/><glyph unicode="" horiz-adv-x="1258" d="M510 715q170 0 224 -86v470l-358 -215q-6 -4 -11.5 7t-9.5 29.5t-6.5 42t-3 45t1.5 37t8 19.5l379 228v276h46v-248l252 152q6 4 11.5 -7t10.5 -29.5t8.5 -41.5t4.5 -44t-1 -36.5t-8 -19.5l-278 -168v-1022q1 -46 -33 -96t-93 -92t-137 -69t-165 -27q-45 0 -82 8.5 t-63 27t-40.5 47.5t-14.5 71q0 49 30.5 100t78.5 92.5t107 68t116 26.5q21 0 52 2.5t65.5 -0.5t69 -15t63.5 -40v283q-34 -77 -109 -135q-109 -85 -249 -85q-225 0 -225 149q0 125 109 210t250 85zM296 338q61 0 129 33.5t116.5 78.5t81 88.5t32.5 64.5t-20.5 33t-44.5 12 q-61 0 -129 -33.5t-116.5 -78.5t-81 -88.5t-32.5 -64.5t20.5 -33t44.5 -12zM298 -112q61 0 129 33.5t116.5 78.5t81 88.5t32.5 64.5t-20.5 33t-44.5 12q-61 0 -129 -33.5t-116.5 -78.5t-81 -88.5t-32.5 -64.5t20.5 -33t44.5 -12z"/><glyph unicode="" horiz-adv-x="1600" d="M815 1240q-34 0 -60 -26t-45 -76.5t-32.5 -106t-26.5 -135.5h149v-63h-159q-28 -178 -30 -186q-53 -314 -159 -488t-223 -174q-86 0 -119 25.5t-33 87.5q0 59 30 97.5t68 38.5q35 0 59.5 -17.5t24.5 -48.5q0 -29 -12.5 -47.5t-30.5 -18.5q-22 0 -30.5 -8t-8.5 -23 q0 -16 52 -16q45 0 79 53t53 138.5t36.5 194t31.5 218.5q13 87 36 174h-133v63h151q38 117 87.5 208t113.5 148.5t131 57.5q62 0 107 -28.5t45 -85.5q0 -58 -30.5 -96.5t-69.5 -38.5q-34 0 -58.5 17.5t-24.5 48.5q0 28 12.5 47t30.5 19q22 0 30 8t8 23q0 7 -16 11.5t-34 4.5 zM1493 681q0 -38 -6 -79.5t-19 -90t-37 -91t-56.5 -78t-82 -56.5t-108.5 -21q-73 0 -124 54l-52 -256h126v-63h-406v63h129l142 705q7 37 -14 37q-31 0 -96 -128l-56 24q7 11 23 46t30.5 56.5t38.5 48t61 40t84 13.5q70 0 77 -65q51 38 87 51.5t98 13.5q43 0 74.5 -18 t50 -49.5t27.5 -70.5t9 -86zM1143 730l-50 -250q-8 -38 -8 -68q0 -79 53 -79q47 0 98 53.5t76 181.5q20 105 20 162q0 110 -71 110q-16 0 -31.5 -4t-33.5 -14.5t-32 -34t-21 -57.5z"/><glyph unicode="" horiz-adv-x="1900" d="M1626 338q25 0 45.5 13.5t20.5 25.5q0 17 -34 17q-36 0 -58 20.5t-22 51.5q0 37 20 55.5t66 18.5q49 0 72.5 -40t23.5 -100q0 -164 -186 -164q-31 0 -88.5 40.5t-99.5 40.5q-45 0 -73.5 -8.5t-60.5 -33.5h-78v29l426 455h-128q-47 0 -82 -21q-16 -8 -28 -42h-50l40 200 h462v-91l-404 -382q22 3 48 3q30 0 54 -14t36.5 -30t32.5 -30t45 -14zM703 833q-28 -177 -29 -186q-53 -314 -159.5 -488t-223.5 -174q-85 0 -118.5 25.5t-33.5 87.5q0 59 30 97.5t69 38.5q34 0 59 -17.5t25 -48.5q0 -29 -12.5 -47.5t-31.5 -18.5q-21 0 -29.5 -8t-8.5 -23 q0 -16 51 -16q46 0 79.5 53t52.5 138.5t37 194t32 218.5q12 87 36 174h-134v63h152q37 117 86.5 208t114 148.5t130.5 57.5q63 0 107.5 -28.5t44.5 -85.5q0 -58 -30 -96.5t-69 -38.5q-34 0 -59 17.5t-25 48.5q0 28 12.5 47t31.5 19q38 0 38 31q0 7 -16.5 11.5t-34.5 4.5 q-33 0 -59 -26t-45.5 -76.5t-32.5 -106t-27 -135.5h303q38 117 87.5 208t113.5 148.5t131 57.5q62 0 107 -28.5t45 -85.5q0 -58 -30.5 -96.5t-69.5 -38.5q-34 0 -58.5 17.5t-24.5 48.5q0 28 12.5 47t30.5 19q22 0 30 8t8 23q0 7 -16 11.5t-34 4.5q-34 0 -60 -26t-45 -76.5 t-32.5 -106t-26.5 -135.5h149v-63h-159q-28 -178 -30 -186q-53 -314 -159 -488t-223 -174q-86 0 -119 25.5t-33 87.5q0 59 30 97.5t68 38.5q35 0 59.5 -17.5t24.5 -48.5q0 -29 -12.5 -47.5t-30.5 -18.5q-22 0 -30.5 -8t-8.5 -23q0 -16 52 -16q45 0 79 53t53 138.5t36.5 194 t31.5 218.5q13 87 36 174h-295z"/><glyph unicode="" horiz-adv-x="1819" d="M569 788q0 17 -17.5 35t-48.5 18q-56 0 -78 -17.5t-22 -66.5q0 -27 19 -51t48 -40.5t62.5 -40t62.5 -47.5t48 -64.5t19 -90.5q0 -83 -79 -123.5t-195 -40.5q-90 0 -147 36t-57 103q0 49 24 74t56 25q27 0 45.5 -17.5t18.5 -39.5q0 -16 -9 -28t-9 -23q0 -31 29 -48.5 t70 -17.5q44 0 73 25.5t29 64.5q0 37 -18.5 64.5t-46.5 43.5t-60 35.5t-60 39.5t-46.5 56t-18.5 84q0 80 65.5 124.5t178.5 44.5q85 0 136 -42.5t51 -102.5q0 -24 -20 -40t-46 -16q-32 0 -48 15.5t-16 36.5q0 7 3.5 16.5t3.5 15.5zM1114 832q-28 -177 -29 -186 q-53 -314 -159.5 -488t-223.5 -174q-85 0 -118.5 25.5t-33.5 87.5q0 59 30 97.5t69 38.5q34 0 59 -17.5t25 -48.5q0 -29 -12.5 -47.5t-31.5 -18.5q-21 0 -29.5 -8t-8.5 -23q0 -16 51 -16q46 0 79.5 53t52.5 138.5t37 194t32 218.5q12 87 36 174h-134v63h152q37 117 86.5 208 t114 148.5t130.5 57.5q63 0 107.5 -28.5t44.5 -85.5q0 -58 -30 -96.5t-69 -38.5q-34 0 -59 17.5t-25 48.5q0 28 12.5 47t31.5 19q38 0 38 31q0 7 -16.5 11.5t-34.5 4.5q-33 0 -59 -26t-45.5 -76.5t-32.5 -106t-27 -135.5h303q38 117 87.5 208t113.5 148.5t131 57.5 q62 0 107 -28.5t45 -85.5q0 -58 -30.5 -96.5t-69.5 -38.5q-34 0 -58.5 17.5t-24.5 48.5q0 28 12.5 47t30.5 19q22 0 30 8t8 23q0 7 -16 11.5t-34 4.5q-34 0 -60 -26t-45 -76.5t-32.5 -106t-26.5 -135.5h149v-63h-159q-28 -178 -30 -186q-53 -314 -159 -488t-223 -174 q-86 0 -119 25.5t-33 87.5q0 59 30 97.5t68 38.5q35 0 59.5 -17.5t24.5 -48.5q0 -29 -12.5 -47.5t-30.5 -18.5q-22 0 -30.5 -8t-8.5 -23q0 -16 52 -16q45 0 79 53t53 138.5t36.5 194t31.5 218.5q13 87 36 174h-295z"/><glyph unicode="" horiz-adv-x="1502" d="M691 844q5 0 17 7q2 -6 19 11v447h85v-357q66 71 91.5 95t39.5 24q22 0 170 -120t155 -120q13 0 33 18t118 116q5 5 30.5 -23.5t20.5 -33.5q-75 -75 -148 -152t-106 -113t-59 -59t-38 -23t-144 106.5t-163 125.5v-470h-85v430l-69 -71q-9 -15 -19 -26q-33 -36 -59 -59 t-38 -23t-144 106.5t-163 125.5l-85 -40l-84 -86q-5 -5 -30 23.5t-21 33.5l135 138l85 90q66 71 91.5 95t39.5 24q22 0 170 -120t155 -120z"/><glyph unicode="" horiz-adv-x="1502" d="M691 844q5 0 17 7q2 -6 19 11l85 90q66 71 91.5 95t39.5 24q22 0 170 -120t155 -120q13 0 33 18t118 116q5 5 30.5 -23.5t20.5 -33.5q-75 -75 -148 -152t-106 -113t-59 -59t-38 -23t-144 106.5t-189 142.5l-59 -57l-69 -71q-9 -15 -19 -26q-33 -36 -59 -59t-38 -23 t-144 106.5t-163 125.5l-85 -40l-84 -86q-5 -5 -30 23.5t-21 33.5l135 138l85 90q66 71 91.5 95t39.5 24q22 0 170 -120t155 -120z"/><glyph unicode="" horiz-adv-x="1900" d="M1758 579q0 -79 -25 -155.5t-61 -129.5t-74 -94.5t-64 -62t-32 -20.5q-3 0 -9 33.5t-6 38.5l15 18q15 19 37 52t44 76.5t37 104.5t15 124q0 89 -19.5 160.5t-46.5 108.5t-50.5 56t-37.5 19q-6 0 -12 -4t-25 -23q-5 -4 -11 -10l-4 -4q-1 -2 -4 -4l-30 -31l-7 -7l-1 -1 q-33 -34 -65 -68q-73 -77 -106 -113t-59 -59t-38 -23t-144 106.5t-189 142.5l-59 -57l-69 -71q-9 -15 -19 -26q-33 -36 -59 -59t-38 -23t-144 106.5t-163 125.5l-85 -40l-84 -86q-5 -5 -30 23.5t-21 33.5l135 138l85 90q66 71 91.5 95t39.5 24q22 0 170 -120t155 -120 q5 0 17 7q2 -6 19 11l85 90q66 71 91.5 95t39.5 24q22 0 170 -120t155 -120q13 0 33 18q16 14 84 82q9 10 18 19q36 39 53.5 57.5t35 32t29.5 13.5q10 0 25.5 -4.5t38.5 -18t45.5 -34.5t46 -58t41.5 -85t29 -119t11 -155z"/><glyph unicode="" horiz-adv-x="1900" d="M691 844q5 0 17 7q2 -6 19 11l85 90q66 71 91.5 95t39.5 24q22 0 170 -120t155 -120q13 0 33 18t118 116q5 5 30.5 -23.5t20.5 -33.5q-75 -75 -148 -152t-106 -113t-59 -59t-38 -23t-144 106.5t-189 142.5l-59 -57l-69 -71q-9 -15 -19 -26q-33 -36 -59 -59t-38 -23 t-144 106.5t-163 125.5l-84 -40v-518q0 -131 21 -131q18 0 39 15t35.5 30t16.5 15q9 0 30.5 -22t21.5 -31q0 -4 -31 -33.5t-82.5 -61t-93.5 -31.5q-48 0 -72.5 58t-24.5 130v546q0 8 24 25l115 118l85 90q66 71 91.5 95t39.5 24q22 0 170 -120t155 -120z"/><glyph unicode="" horiz-adv-x="1822" d="M1704 1601l-1111 -144v-1162q0 -125 -109.5 -210t-249.5 -85q-225 0 -225 149q0 125 109 210t250 85q99 0 155 -30l-1 1224h70l1112 142h70v-1343q0 -125 -109.5 -210t-249.5 -85q-225 0 -225 149q0 125 109 210t250 85q99 0 155 -30v1045z"/><glyph unicode="" horiz-adv-x="2128" d="M523 1638h1l1180 142h70v-1343q0 -125 -109.5 -210t-249.5 -85q-225 0 -225 149q0 125 109 210t250 85q99 0 155 -30v1045l-1109 -144l-1 5l-1 -1167q0 -125 -109.5 -210t-249.5 -85q-225 0 -225 149q0 125 109 210t250 85q99 0 155 -30v1224zM655 172q0 24 9 45t25 37 t38 25t48 9t47.5 -9t36.5 -25t23 -37t8 -45q0 -48 -31 -81.5t-84 -33.5q-26 0 -48 9t-38 24.5t-25 36.5t-9 45zM1848 315q0 24 9 45t25 37t38 25t48 9t47.5 -9t36.5 -25t23 -37t8 -45q0 -48 -31 -81.5t-84 -33.5q-26 0 -48 9t-38 24.5t-25 36.5t-9 45z"/></font>
</defs>
</svg>
